<svg width="868" height="152" viewBox="0 0 868 152" fill="none" xmlns="http://www.w3.org/2000/svg">
<rect width="872" height="151.673" fill="white"/>
<mask id="path-1-inside-1_2004_112" fill="white">
<path d="M0 50H872V76.6729H0V50Z"/>
</mask>
<path d="M0 50.4521H872V49.5479H0V50.4521ZM872 76.2208H0V77.125H872V76.2208Z" fill="#DFDADA" mask="url(#path-1-inside-1_2004_112)"/>
<g clip-path="url(#clip0_2004_112)">
<path d="M274.164 67.61C273.518 67.61 273.001 67.0934 273.001 66.4475C273.001 65.8017 273.518 65.285 274.164 65.285C274.81 65.285 275.326 65.8017 275.326 66.4475C275.326 67.0934 274.81 67.61 274.164 67.61ZM274.164 65.7156C273.776 65.7156 273.432 66.06 273.432 66.4475C273.432 66.835 273.776 67.1794 274.164 67.1794C274.551 67.1794 274.896 66.835 274.896 66.4475C274.896 66.06 274.595 65.7156 274.164 65.7156Z" fill="#05A845"/>
<path d="M279.287 67.61C278.641 67.61 278.125 67.0934 278.125 66.4475C278.125 65.8017 278.641 65.285 279.287 65.285C279.933 65.285 280.45 65.8017 280.45 66.4475C280.45 67.0934 279.933 67.61 279.287 67.61ZM279.287 65.7156C278.9 65.7156 278.555 66.06 278.555 66.4475C278.555 66.835 278.9 67.1794 279.287 67.1794C279.675 67.1794 280.019 66.835 280.019 66.4475C280.019 66.06 279.675 65.7156 279.287 65.7156Z" fill="#05A845"/>
<path d="M275.886 63.0895H273.087V63.5201H275.886V63.0895Z" fill="#05A845"/>
<path d="M276.145 61.1521H275.714V63.2188H276.145V61.1521Z" fill="#05A845"/>
<path d="M272.958 65.1132H272.742C272.613 65.1132 272.527 65.0271 272.527 64.8979V64.5534C272.527 64.4243 272.613 64.3382 272.742 64.3382H272.958C273.087 64.3382 273.173 64.4243 273.173 64.5534V64.8979C273.173 65.0271 273.087 65.1132 272.958 65.1132Z" fill="#05A845"/>
<path d="M281.01 66.5767H280.192C280.063 66.5767 279.977 66.4906 279.977 66.4045C279.934 66.017 279.632 65.7587 279.245 65.7587C278.857 65.7587 278.556 66.0601 278.513 66.4045C278.513 66.5337 278.427 66.5767 278.297 66.5767H275.068C274.939 66.5767 274.853 66.4906 274.853 66.4045C274.853 66.017 274.552 65.7156 274.164 65.7156C273.777 65.7156 273.475 66.017 273.432 66.3614C273.432 66.4906 273.346 66.5767 273.217 66.5767H272.571C272.27 66.5767 272.011 66.4476 271.839 66.1892C271.667 65.9309 271.667 65.6726 271.71 65.4142L271.882 63.7351V63.692C272.011 63.3476 272.356 63.0892 272.7 63.0892H273.045L273.863 61.4962C273.992 61.1517 274.293 60.9365 274.681 60.9365H275.929C276.059 60.9365 276.145 61.0226 276.145 61.1517V64.7254H275.714V61.367H274.724C274.509 61.367 274.336 61.4962 274.293 61.6684L273.389 63.3906C273.346 63.4767 273.26 63.5198 273.217 63.5198H272.743C272.571 63.5198 272.399 63.649 272.313 63.8212L272.141 65.5004C272.097 65.7156 272.141 65.8448 272.184 65.9739C272.27 66.0601 272.399 66.1462 272.571 66.1462H273.088C273.217 65.6726 273.691 65.2851 274.207 65.2851C274.724 65.2851 275.197 65.6295 275.327 66.1462H278.168C278.297 65.6726 278.771 65.2851 279.288 65.2851C279.804 65.2851 280.278 65.6295 280.407 66.1462H281.053C281.311 66.1462 281.484 65.9309 281.484 65.7156V64.7684H281.914V65.7156C281.914 66.1892 281.484 66.5767 281.01 66.5767Z" fill="#05A845"/>
<path d="M275.929 66.5766C275.8 66.5766 275.714 66.4905 275.714 66.3613V59.7308C275.714 59.6016 275.8 59.5155 275.929 59.5155H281.699C281.828 59.5155 281.914 59.6016 281.914 59.7308V64.7252C281.914 64.8544 281.828 64.9405 281.699 64.9405C281.57 64.9405 281.484 64.8544 281.484 64.7252V59.9461H276.145V66.3613C276.145 66.4475 276.059 66.5766 275.929 66.5766Z" fill="#05A845"/>
<path d="M281.914 60.9365H275.714V61.367H281.914V60.9365Z" fill="#05A845"/>
<path d="M281.914 62.0129H275.714V62.4434H281.914V62.0129Z" fill="#05A845"/>
<path d="M281.914 63.0895H275.714V63.5201H281.914V63.0895Z" fill="#05A845"/>
<path d="M281.914 64.1656H275.714V64.5962H281.914V64.1656Z" fill="#05A845"/>
</g>
<path d="M288.855 65.1376H287.333V60.2058H288.922C289.401 60.2058 289.81 60.3045 290.15 60.502C290.491 60.6978 290.752 60.9796 290.933 61.3472C291.114 61.7132 291.205 62.1515 291.205 62.662C291.205 63.1758 291.114 63.6181 290.931 63.9889C290.748 64.3581 290.481 64.6423 290.131 64.8414C289.781 65.0388 289.356 65.1376 288.855 65.1376ZM287.93 64.6078H288.816C289.224 64.6078 289.562 64.5291 289.83 64.3718C290.098 64.2145 290.298 63.9905 290.43 63.6999C290.561 63.4093 290.627 63.0634 290.627 62.662C290.627 62.2639 290.562 61.9211 290.432 61.6338C290.302 61.3448 290.108 61.1232 289.849 60.9691C289.591 60.8134 289.269 60.7355 288.884 60.7355H287.93V64.6078ZM293.681 65.2146C293.324 65.2146 293.017 65.136 292.758 64.9786C292.501 64.8197 292.303 64.5982 292.163 64.314C292.025 64.0282 291.956 63.6959 291.956 63.317C291.956 62.9382 292.025 62.6042 292.163 62.3153C292.303 62.0247 292.497 61.7983 292.746 61.6362C292.997 61.4724 293.289 61.3905 293.623 61.3905C293.815 61.3905 294.006 61.4227 294.194 61.4869C294.381 61.5511 294.552 61.6554 294.706 61.7999C294.861 61.9428 294.983 62.1322 295.075 62.3682C295.166 62.6042 295.212 62.8948 295.212 63.24V63.4808H292.361V62.9895H294.634C294.634 62.7808 294.592 62.5946 294.509 62.4309C294.427 62.2671 294.31 62.1379 294.157 62.0431C294.006 61.9484 293.828 61.9011 293.623 61.9011C293.396 61.9011 293.201 61.9573 293.035 62.0696C292.871 62.1804 292.745 62.3249 292.657 62.5031C292.569 62.6813 292.525 62.8723 292.525 63.0762V63.4037C292.525 63.6831 292.573 63.9199 292.669 64.1141C292.767 64.3068 292.903 64.4537 293.076 64.5548C293.25 64.6543 293.451 64.7041 293.681 64.7041C293.83 64.7041 293.965 64.6832 294.085 64.6415C294.207 64.5982 294.312 64.5339 294.401 64.4489C294.489 64.3622 294.557 64.2546 294.605 64.1262L295.154 64.2803C295.097 64.4665 294.999 64.6303 294.863 64.7715C294.727 64.9112 294.558 65.0204 294.357 65.099C294.157 65.1761 293.931 65.2146 293.681 65.2146ZM296.645 60.2058V65.1376H296.077V60.2058H296.645ZM297.686 65.1376V61.4387H298.254V65.1376H297.686ZM297.975 60.8222C297.864 60.8222 297.769 60.7845 297.688 60.709C297.61 60.6336 297.57 60.5429 297.57 60.4369C297.57 60.331 297.61 60.2403 297.688 60.1648C297.769 60.0894 297.864 60.0516 297.975 60.0516C298.086 60.0516 298.18 60.0894 298.259 60.1648C298.339 60.2403 298.379 60.331 298.379 60.4369C298.379 60.5429 298.339 60.6336 298.259 60.709C298.18 60.7845 298.086 60.8222 297.975 60.8222ZM302.32 61.4387L300.952 65.1376H300.374L299.006 61.4387H299.623L300.644 64.3862H300.682L301.703 61.4387H302.32ZM304.488 65.2146C304.132 65.2146 303.824 65.136 303.566 64.9786C303.309 64.8197 303.111 64.5982 302.971 64.314C302.833 64.0282 302.764 63.6959 302.764 63.317C302.764 62.9382 302.833 62.6042 302.971 62.3153C303.111 62.0247 303.305 61.7983 303.554 61.6362C303.804 61.4724 304.096 61.3905 304.43 61.3905C304.623 61.3905 304.813 61.4227 305.001 61.4869C305.189 61.5511 305.36 61.6554 305.514 61.7999C305.668 61.9428 305.791 62.1322 305.883 62.3682C305.974 62.6042 306.02 62.8948 306.02 63.24V63.4808H303.169V62.9895H305.442C305.442 62.7808 305.4 62.5946 305.317 62.4309C305.235 62.2671 305.118 62.1379 304.965 62.0431C304.814 61.9484 304.636 61.9011 304.43 61.9011C304.204 61.9011 304.008 61.9573 303.843 62.0696C303.679 62.1804 303.553 62.3249 303.465 62.5031C303.376 62.6813 303.332 62.8723 303.332 63.0762V63.4037C303.332 63.6831 303.38 63.9199 303.477 64.1141C303.575 64.3068 303.71 64.4537 303.884 64.5548C304.057 64.6543 304.259 64.7041 304.488 64.7041C304.638 64.7041 304.772 64.6832 304.893 64.6415C305.015 64.5982 305.12 64.5339 305.208 64.4489C305.297 64.3622 305.365 64.2546 305.413 64.1262L305.962 64.2803C305.904 64.4665 305.807 64.6303 305.671 64.7715C305.534 64.9112 305.366 65.0204 305.165 65.099C304.964 65.1761 304.739 65.2146 304.488 65.2146ZM306.884 65.1376V61.4387H307.433V61.9974H307.472C307.539 61.8144 307.661 61.6659 307.838 61.5519C308.015 61.4379 308.214 61.3809 308.435 61.3809C308.477 61.3809 308.529 61.3817 308.592 61.3833C308.654 61.3849 308.702 61.3873 308.734 61.3905V61.9685C308.714 61.9637 308.67 61.9565 308.601 61.9468C308.534 61.9356 308.462 61.93 308.387 61.93C308.207 61.93 308.047 61.9677 307.905 62.0431C307.766 62.117 307.655 62.2197 307.573 62.3514C307.493 62.4814 307.453 62.6299 307.453 62.7969V65.1376H306.884ZM309.886 66.5246C309.79 66.5246 309.704 66.5166 309.628 66.5006C309.553 66.4861 309.501 66.4717 309.472 66.4572L309.616 65.9563C309.754 65.9917 309.876 66.0045 309.982 65.9949C310.088 65.9852 310.182 65.9379 310.264 65.8528C310.348 65.7693 310.424 65.6336 310.493 65.4458L310.599 65.1568L309.231 61.4387H309.847L310.869 64.3862H310.907L311.928 61.4387H312.545L310.974 65.677C310.904 65.868 310.816 66.0262 310.712 66.1514C310.608 66.2782 310.486 66.3721 310.348 66.4331C310.212 66.4941 310.058 66.5246 309.886 66.5246ZM316.849 61.4387V61.9203H314.855V61.4387H316.849ZM315.452 65.1376V60.9282C315.452 60.7163 315.502 60.5397 315.602 60.3984C315.701 60.2571 315.83 60.1512 315.989 60.0805C316.148 60.0099 316.316 59.9746 316.493 59.9746C316.632 59.9746 316.746 59.9858 316.835 60.0083C316.923 60.0308 316.989 60.0516 317.032 60.0709L316.868 60.5622C316.839 60.5525 316.799 60.5405 316.748 60.526C316.698 60.5116 316.632 60.5044 316.55 60.5044C316.363 60.5044 316.227 60.5517 316.143 60.6464C316.062 60.7412 316.021 60.88 316.021 61.063V65.1376H315.452ZM317.646 65.1376V61.4387H318.195V61.9974H318.233C318.301 61.8144 318.423 61.6659 318.599 61.5519C318.776 61.4379 318.975 61.3809 319.196 61.3809C319.238 61.3809 319.29 61.3817 319.353 61.3833C319.416 61.3849 319.463 61.3873 319.495 61.3905V61.9685C319.476 61.9637 319.432 61.9565 319.363 61.9468C319.295 61.9356 319.224 61.93 319.148 61.93C318.968 61.93 318.808 61.9677 318.667 62.0431C318.527 62.117 318.416 62.2197 318.334 62.3514C318.254 62.4814 318.214 62.6299 318.214 62.7969V65.1376H317.646ZM321.559 65.2146C321.225 65.2146 320.932 65.1352 320.68 64.9762C320.429 64.8173 320.233 64.5949 320.092 64.3092C319.953 64.0234 319.883 63.6895 319.883 63.3074C319.883 62.9221 319.953 62.5858 320.092 62.2984C320.233 62.011 320.429 61.7879 320.68 61.6289C320.932 61.47 321.225 61.3905 321.559 61.3905C321.893 61.3905 322.185 61.47 322.435 61.6289C322.687 61.7879 322.883 62.011 323.023 62.2984C323.164 62.5858 323.235 62.9221 323.235 63.3074C323.235 63.6895 323.164 64.0234 323.023 64.3092C322.883 64.5949 322.687 64.8173 322.435 64.9762C322.185 65.1352 321.893 65.2146 321.559 65.2146ZM321.559 64.7041C321.812 64.7041 322.021 64.6391 322.185 64.5091C322.349 64.379 322.47 64.208 322.548 63.9961C322.627 63.7842 322.666 63.5546 322.666 63.3074C322.666 63.0602 322.627 62.8298 322.548 62.6163C322.47 62.4028 322.349 62.2302 322.185 62.0985C322.021 61.9669 321.812 61.9011 321.559 61.9011C321.305 61.9011 321.096 61.9669 320.933 62.0985C320.769 62.2302 320.648 62.4028 320.569 62.6163C320.49 62.8298 320.451 63.0602 320.451 63.3074C320.451 63.5546 320.49 63.7842 320.569 63.9961C320.648 64.208 320.769 64.379 320.933 64.5091C321.096 64.6391 321.305 64.7041 321.559 64.7041ZM324.102 65.1376V61.4387H324.651V62.0167H324.7C324.777 61.8192 324.901 61.6659 325.073 61.5567C325.245 61.4459 325.451 61.3905 325.692 61.3905C325.936 61.3905 326.139 61.4459 326.301 61.5567C326.465 61.6659 326.592 61.8192 326.684 62.0167H326.722C326.817 61.8256 326.959 61.6739 327.149 61.5615C327.338 61.4475 327.565 61.3905 327.83 61.3905C328.161 61.3905 328.431 61.4941 328.642 61.7012C328.852 61.9067 328.957 62.227 328.957 62.662V65.1376H328.389V62.662C328.389 62.3891 328.314 62.1941 328.165 62.0769C328.016 61.9597 327.84 61.9011 327.637 61.9011C327.377 61.9011 327.176 61.9797 327.033 62.1371C326.89 62.2928 326.819 62.4903 326.819 62.7295V65.1376H326.241V62.6042C326.241 62.3939 326.172 62.2246 326.036 62.0961C325.9 61.9661 325.724 61.9011 325.509 61.9011C325.361 61.9011 325.223 61.9404 325.094 62.0191C324.968 62.0977 324.865 62.2069 324.786 62.3466C324.709 62.4846 324.671 62.6444 324.671 62.8258V65.1376H324.102ZM331.894 65.1376V64.7041L333.522 62.9221C333.713 62.7134 333.87 62.532 333.994 62.3779C334.117 62.2221 334.209 62.0761 334.268 61.9396C334.329 61.8015 334.36 61.657 334.36 61.5061C334.36 61.3328 334.318 61.1826 334.234 61.0558C334.153 60.929 334.04 60.8311 333.897 60.762C333.754 60.693 333.594 60.6585 333.416 60.6585C333.226 60.6585 333.061 60.6978 332.92 60.7765C332.78 60.8535 332.672 60.9619 332.595 61.1016C332.519 61.2412 332.481 61.405 332.481 61.5928H331.913C331.913 61.3039 331.98 61.0502 332.113 60.8319C332.246 60.6135 332.428 60.4434 332.657 60.3213C332.888 60.1993 333.148 60.1383 333.435 60.1383C333.724 60.1383 333.98 60.1993 334.203 60.3213C334.426 60.4434 334.601 60.6079 334.728 60.815C334.855 61.0221 334.918 61.2525 334.918 61.5061C334.918 61.6875 334.885 61.8649 334.82 62.0383C334.755 62.2101 334.643 62.402 334.482 62.6139C334.324 62.8242 334.103 63.081 333.82 63.3845L332.713 64.5693V64.6078H335.005V65.1376H331.894ZM338.128 62.4068V62.9366H335.971V62.4068H338.128ZM339.003 64.1262V63.6349L341.17 60.2058H341.527V60.9667H341.286L339.649 63.5578V63.5964H342.567V64.1262H339.003ZM341.325 65.1376V63.9769V63.7481V60.2058H341.893V65.1376H341.325ZM345.955 62.9125V65.1376H345.386V60.2058H345.955V62.0167H346.003C346.09 61.8256 346.22 61.6739 346.393 61.5615C346.568 61.4475 346.801 61.3905 347.091 61.3905C347.343 61.3905 347.564 61.4411 347.754 61.5423C347.943 61.6418 348.09 61.7951 348.194 62.0022C348.3 62.2077 348.353 62.4694 348.353 62.7873V65.1376H347.785V62.8258C347.785 62.532 347.709 62.3048 347.556 62.1443C347.405 61.9821 347.196 61.9011 346.928 61.9011C346.741 61.9011 346.574 61.9404 346.427 62.0191C346.281 62.0977 346.165 62.2125 346.08 62.3634C345.996 62.5143 345.955 62.6974 345.955 62.9125ZM350.896 65.2146C350.562 65.2146 350.269 65.1352 350.017 64.9762C349.766 64.8173 349.57 64.5949 349.429 64.3092C349.289 64.0234 349.22 63.6895 349.22 63.3074C349.22 62.9221 349.289 62.5858 349.429 62.2984C349.57 62.011 349.766 61.7879 350.017 61.6289C350.269 61.47 350.562 61.3905 350.896 61.3905C351.23 61.3905 351.522 61.47 351.772 61.6289C352.024 61.7879 352.22 62.011 352.36 62.2984C352.501 62.5858 352.572 62.9221 352.572 63.3074C352.572 63.6895 352.501 64.0234 352.36 64.3092C352.22 64.5949 352.024 64.8173 351.772 64.9762C351.522 65.1352 351.23 65.2146 350.896 65.2146ZM350.896 64.7041C351.149 64.7041 351.358 64.6391 351.522 64.5091C351.685 64.379 351.807 64.208 351.885 63.9961C351.964 63.7842 352.003 63.5546 352.003 63.3074C352.003 63.0602 351.964 62.8298 351.885 62.6163C351.807 62.4028 351.685 62.2302 351.522 62.0985C351.358 61.9669 351.149 61.9011 350.896 61.9011C350.642 61.9011 350.433 61.9669 350.269 62.0985C350.106 62.2302 349.985 62.4028 349.906 62.6163C349.827 62.8298 349.788 63.0602 349.788 63.3074C349.788 63.5546 349.827 63.7842 349.906 63.9961C349.985 64.208 350.106 64.379 350.269 64.5091C350.433 64.6391 350.642 64.7041 350.896 64.7041ZM355.77 63.6253V61.4387H356.339V65.1376H355.77V64.5115H355.732C355.645 64.6993 355.51 64.859 355.327 64.9907C355.144 65.1207 354.913 65.1857 354.634 65.1857C354.402 65.1857 354.197 65.1352 354.017 65.034C353.837 64.9313 353.696 64.7772 353.593 64.5717C353.491 64.3646 353.439 64.1037 353.439 63.789V61.4387H354.007V63.7505C354.007 64.0202 354.083 64.2353 354.234 64.3959C354.386 64.5564 354.581 64.6367 354.817 64.6367C354.958 64.6367 355.102 64.6006 355.248 64.5283C355.395 64.4561 355.519 64.3453 355.619 64.196C355.72 64.0467 355.77 63.8565 355.77 63.6253ZM357.379 65.1376V61.4387H357.929V61.9974H357.967C358.034 61.8144 358.156 61.6659 358.333 61.5519C358.51 61.4379 358.709 61.3809 358.93 61.3809C358.972 61.3809 359.024 61.3817 359.087 61.3833C359.149 61.3849 359.197 61.3873 359.229 61.3905V61.9685C359.21 61.9637 359.165 61.9565 359.096 61.9468C359.029 61.9356 358.958 61.93 358.882 61.93C358.702 61.93 358.542 61.9677 358.4 62.0431C358.261 62.117 358.15 62.2197 358.068 62.3514C357.988 62.4814 357.948 62.6299 357.948 62.7969V65.1376H357.379Z" fill="#4D4D4D"/>
<g clip-path="url(#clip1_2004_112)">
<path d="M400.877 65.9633C400.748 65.9633 400.662 65.8772 400.662 65.748C400.662 63.423 402.556 61.5286 404.881 61.5286C405.01 61.5286 405.096 61.6147 405.096 61.7438C405.096 61.873 405.01 61.9591 404.881 61.9591C402.814 61.9591 401.092 63.6383 401.092 65.748C401.092 65.8772 401.006 65.9633 400.877 65.9633Z" fill="#05A845"/>
<path d="M404.88 61.9591C404.751 61.9591 404.665 61.8729 404.665 61.7438C404.665 61.6146 404.751 61.5285 404.88 61.5285C406.602 61.5285 408.023 60.1077 408.023 58.3854C408.023 58.2563 408.109 58.1702 408.238 58.1702C408.367 58.1702 408.453 58.2563 408.453 58.3854C408.453 60.366 406.86 61.9591 404.88 61.9591Z" fill="#05A845"/>
<path d="M408.196 67.0825C408.153 67.0825 408.066 67.0394 408.023 66.9963C407.937 66.9102 407.937 66.781 408.023 66.695C409.143 65.6185 409.746 64.1977 409.746 62.6477C409.746 61.0977 409.186 59.6338 408.109 58.5574C408.023 58.4713 408.023 58.3422 408.109 58.2561C408.196 58.1699 408.325 58.1699 408.411 58.2561C409.616 59.4616 410.219 61.0116 410.219 62.6908C410.219 64.3269 409.53 65.8769 408.368 67.0394C408.325 67.0825 408.239 67.0825 408.196 67.0825Z" fill="#05A845"/>
<path d="M404.752 68.5034C404.709 68.5034 404.709 68.5034 404.666 68.5034C403.288 68.5034 401.996 67.9437 401.049 66.9534C400.963 66.8673 400.963 66.7381 401.049 66.652C401.135 66.5659 401.264 66.5659 401.35 66.652C402.211 67.5562 403.417 68.0729 404.666 68.0729C405.957 68.0729 407.12 67.5993 408.024 66.7381C408.11 66.652 408.239 66.652 408.325 66.7381C408.411 66.8243 408.411 66.9534 408.325 67.0395C407.378 67.9868 406.086 68.5034 404.752 68.5034Z" fill="#05A845"/>
<path d="M400.101 67.7283C400.058 67.7283 400.015 67.7283 399.972 67.6852C399.886 67.6422 399.843 67.513 399.929 67.4269C401.005 65.6616 402.771 64.4991 404.837 64.2839C404.967 64.2839 405.053 64.37 405.053 64.4561C405.053 64.5852 404.967 64.6714 404.88 64.6714C402.943 64.8866 401.307 65.92 400.273 67.5991C400.23 67.6852 400.187 67.7283 400.101 67.7283Z" fill="#05A845"/>
<path d="M407.722 62.9924C407.679 62.9924 407.636 62.9924 407.593 62.9494C407.507 62.8632 407.464 62.7341 407.55 62.648C407.593 62.6049 407.636 62.5188 407.679 62.4757C407.722 62.3896 407.852 62.3466 407.981 62.3896C408.067 62.4327 408.11 62.6049 408.067 62.691C408.024 62.7771 407.981 62.8202 407.938 62.8632C407.852 62.9924 407.765 62.9924 407.722 62.9924Z" fill="#05A845"/>
<path d="M405.828 64.4993C405.742 64.4993 405.655 64.4562 405.612 64.3701C405.569 64.2409 405.612 64.1549 405.742 64.1118C405.871 64.0687 405.957 64.0257 406.086 63.9396C406.172 63.8965 406.301 63.9396 406.387 64.0257C406.43 64.1118 406.387 64.2409 406.301 64.3271C406.172 64.3701 406.043 64.4562 405.914 64.4993C405.914 64.4562 405.871 64.4993 405.828 64.4993ZM406.904 63.8965C406.861 63.8965 406.775 63.8534 406.732 63.8104C406.646 63.7243 406.689 63.5951 406.775 63.509C406.861 63.4229 406.99 63.3368 407.076 63.2507C407.162 63.1646 407.292 63.1646 407.378 63.2507C407.464 63.3368 407.464 63.4659 407.378 63.5521C407.292 63.6382 407.162 63.7243 407.076 63.8534C406.99 63.8534 406.947 63.8965 406.904 63.8965Z" fill="#05A845"/>
<path d="M404.838 64.7144C404.708 64.7144 404.622 64.6283 404.622 64.5422C404.622 64.413 404.708 64.3269 404.795 64.3269C404.881 64.3269 404.924 64.3269 405.01 64.2839C405.139 64.2839 405.225 64.3269 405.268 64.4561C405.311 64.5852 405.225 64.6714 405.096 64.7144C405.01 64.7144 404.967 64.7144 404.838 64.7144C404.881 64.7144 404.881 64.7144 404.838 64.7144Z" fill="#05A845"/>
<path d="M401.221 66.9962C401.178 66.9962 401.092 66.9531 401.049 66.91C400.705 66.5656 400.662 66.0059 400.662 65.7475V65.7045C400.662 65.5753 400.791 65.4892 400.877 65.4892C401.006 65.4892 401.092 65.6184 401.092 65.7045C401.092 65.8337 401.092 66.3073 401.351 66.6087C401.437 66.6948 401.437 66.8239 401.351 66.91C401.307 66.9962 401.264 66.9962 401.221 66.9962Z" fill="#05A845"/>
</g>
<path d="M417.386 63.3705H418.041L418.59 64.093L418.735 64.2856L419.553 65.3741H418.898L418.359 64.6517L418.224 64.4686L417.386 63.3705ZM419.756 62.4458C419.756 62.966 419.662 63.4155 419.474 63.7944C419.286 64.1733 419.028 64.4654 418.701 64.6709C418.373 64.8764 417.999 64.9792 417.579 64.9792C417.158 64.9792 416.784 64.8764 416.457 64.6709C416.129 64.4654 415.871 64.1733 415.684 63.7944C415.496 63.4155 415.402 62.966 415.402 62.4458C415.402 61.9257 415.496 61.4762 415.684 61.0973C415.871 60.7184 416.129 60.4262 416.457 60.2207C416.784 60.0152 417.158 59.9125 417.579 59.9125C417.999 59.9125 418.373 60.0152 418.701 60.2207C419.028 60.4262 419.286 60.7184 419.474 61.0973C419.662 61.4762 419.756 61.9257 419.756 62.4458ZM419.178 62.4458C419.178 62.0188 419.106 61.6584 418.963 61.3646C418.822 61.0708 418.63 60.8485 418.388 60.6975C418.147 60.5466 417.877 60.4712 417.579 60.4712C417.28 60.4712 417.01 60.5466 416.767 60.6975C416.526 60.8485 416.335 61.0708 416.192 61.3646C416.05 61.6584 415.98 62.0188 415.98 62.4458C415.98 62.8729 416.05 63.2333 416.192 63.5271C416.335 63.8209 416.526 64.0432 416.767 64.1941C417.01 64.345 417.28 64.4205 417.579 64.4205C417.877 64.4205 418.147 64.345 418.388 64.1941C418.63 64.0432 418.822 63.8209 418.963 63.5271C419.106 63.2333 419.178 62.8729 419.178 62.4458ZM423.014 63.3994V61.2129H423.582V64.9117H423.014V64.2856H422.975C422.889 64.4735 422.754 64.6332 422.571 64.7648C422.388 64.8949 422.157 64.9599 421.877 64.9599C421.646 64.9599 421.441 64.9093 421.261 64.8082C421.081 64.7054 420.94 64.5513 420.837 64.3458C420.734 64.1387 420.683 63.8779 420.683 63.5632V61.2129H421.251V63.5247C421.251 63.7944 421.327 64.0095 421.478 64.17C421.63 64.3306 421.824 64.4109 422.06 64.4109C422.202 64.4109 422.345 64.3747 422.491 64.3025C422.639 64.2302 422.763 64.1195 422.862 63.9702C422.963 63.8209 423.014 63.6306 423.014 63.3994ZM425.712 64.9984C425.477 64.9984 425.265 64.9543 425.073 64.866C424.882 64.7761 424.731 64.6469 424.618 64.4783C424.506 64.3081 424.45 64.1026 424.45 63.8618C424.45 63.6499 424.492 63.4781 424.575 63.3465C424.658 63.2132 424.77 63.1089 424.91 63.0334C425.049 62.958 425.204 62.9018 425.372 62.8648C425.542 62.8263 425.713 62.7958 425.885 62.7733C426.11 62.7444 426.292 62.7228 426.432 62.7083C426.573 62.6923 426.676 62.6658 426.74 62.6289C426.806 62.5919 426.839 62.5277 426.839 62.4362V62.4169C426.839 62.1793 426.774 61.9947 426.644 61.8631C426.515 61.7314 426.32 61.6656 426.058 61.6656C425.787 61.6656 425.574 61.725 425.42 61.8438C425.266 61.9626 425.158 62.0894 425.095 62.2243L424.556 62.0316C424.652 61.8069 424.78 61.6319 424.941 61.5067C425.103 61.3798 425.28 61.2915 425.471 61.2418C425.663 61.1904 425.853 61.1647 426.039 61.1647C426.158 61.1647 426.294 61.1792 426.449 61.2081C426.604 61.2354 426.754 61.2923 426.899 61.379C427.045 61.4657 427.166 61.5966 427.262 61.7716C427.359 61.9466 427.407 62.1809 427.407 62.4747V64.9117H426.839V64.4109H426.81C426.771 64.4911 426.707 64.577 426.617 64.6685C426.527 64.76 426.408 64.8379 426.258 64.9021C426.109 64.9663 425.927 64.9984 425.712 64.9984ZM425.798 64.4879C426.023 64.4879 426.213 64.4438 426.367 64.3555C426.522 64.2672 426.64 64.1532 426.718 64.0135C426.798 63.8738 426.839 63.727 426.839 63.5728V63.0527C426.815 63.0816 426.762 63.1081 426.68 63.1321C426.599 63.1546 426.506 63.1747 426.4 63.1923C426.296 63.2084 426.194 63.2229 426.095 63.2357C425.997 63.2469 425.917 63.2566 425.856 63.2646C425.708 63.2839 425.57 63.3152 425.442 63.3585C425.315 63.4002 425.212 63.4637 425.134 63.5488C425.057 63.6322 425.018 63.7462 425.018 63.8907C425.018 64.0882 425.091 64.2375 425.237 64.3386C425.385 64.4381 425.572 64.4879 425.798 64.4879ZM429.013 59.9799V64.9117H428.444V59.9799H429.013ZM430.053 64.9117V61.2129H430.622V64.9117H430.053ZM430.342 60.5964C430.232 60.5964 430.136 60.5587 430.056 60.4832C429.977 60.4078 429.938 60.3171 429.938 60.2111C429.938 60.1051 429.977 60.0144 430.056 59.939C430.136 59.8635 430.232 59.8258 430.342 59.8258C430.453 59.8258 430.548 59.8635 430.627 59.939C430.707 60.0144 430.747 60.1051 430.747 60.2111C430.747 60.3171 430.707 60.4078 430.627 60.4832C430.548 60.5587 430.453 60.5964 430.342 60.5964ZM433.271 61.2129V61.6945H431.354V61.2129H433.271ZM431.913 60.3267H432.481V63.8522C432.481 64.0127 432.505 64.1331 432.551 64.2134C432.599 64.2921 432.66 64.345 432.734 64.3723C432.81 64.398 432.889 64.4109 432.973 64.4109C433.035 64.4109 433.087 64.4076 433.127 64.4012C433.167 64.3932 433.199 64.3868 433.223 64.382L433.339 64.8925C433.3 64.9069 433.246 64.9214 433.177 64.9358C433.108 64.9519 433.021 64.9599 432.915 64.9599C432.754 64.9599 432.597 64.9254 432.443 64.8564C432.29 64.7873 432.164 64.6822 432.062 64.5409C431.963 64.3996 431.913 64.2214 431.913 64.0063V60.3267ZM434.492 66.2988C434.396 66.2988 434.31 66.2908 434.235 66.2747C434.159 66.2603 434.107 66.2458 434.078 66.2314L434.222 65.7305C434.361 65.7658 434.483 65.7787 434.589 65.769C434.694 65.7594 434.788 65.712 434.87 65.627C434.954 65.5435 435.03 65.4078 435.099 65.22L435.205 64.931L433.837 61.2129H434.454L435.475 64.1604H435.513L436.534 61.2129H437.151L435.581 65.4512C435.51 65.6422 435.423 65.8003 435.318 65.9256C435.214 66.0524 435.093 66.1463 434.955 66.2073C434.818 66.2683 434.664 66.2988 434.492 66.2988ZM440.897 64.9984C440.662 64.9984 440.449 64.9543 440.258 64.866C440.067 64.7761 439.916 64.6469 439.803 64.4783C439.691 64.3081 439.635 64.1026 439.635 63.8618C439.635 63.6499 439.676 63.4781 439.76 63.3465C439.843 63.2132 439.955 63.1089 440.095 63.0334C440.234 62.958 440.388 62.9018 440.557 62.8648C440.727 62.8263 440.898 62.7958 441.07 62.7733C441.295 62.7444 441.477 62.7228 441.617 62.7083C441.758 62.6923 441.861 62.6658 441.925 62.6289C441.991 62.5919 442.024 62.5277 442.024 62.4362V62.4169C442.024 62.1793 441.959 61.9947 441.829 61.8631C441.7 61.7314 441.505 61.6656 441.243 61.6656C440.972 61.6656 440.759 61.725 440.605 61.8438C440.451 61.9626 440.343 62.0894 440.28 62.2243L439.741 62.0316C439.837 61.8069 439.965 61.6319 440.126 61.5067C440.288 61.3798 440.465 61.2915 440.656 61.2418C440.848 61.1904 441.038 61.1647 441.224 61.1647C441.343 61.1647 441.479 61.1792 441.633 61.2081C441.789 61.2354 441.939 61.2923 442.084 61.379C442.23 61.4657 442.351 61.5966 442.447 61.7716C442.544 61.9466 442.592 62.1809 442.592 62.4747V64.9117H442.024V64.4109H441.995C441.956 64.4911 441.892 64.577 441.802 64.6685C441.712 64.76 441.593 64.8379 441.443 64.9021C441.294 64.9663 441.112 64.9984 440.897 64.9984ZM440.983 64.4879C441.208 64.4879 441.397 64.4438 441.552 64.3555C441.707 64.2672 441.825 64.1532 441.903 64.0135C441.983 63.8738 442.024 63.727 442.024 63.5728V63.0527C442 63.0816 441.947 63.1081 441.865 63.1321C441.784 63.1546 441.691 63.1747 441.585 63.1923C441.481 63.2084 441.379 63.2229 441.279 63.2357C441.182 63.2469 441.102 63.2566 441.041 63.2646C440.893 63.2839 440.755 63.3152 440.627 63.3585C440.5 63.4002 440.397 63.4637 440.319 63.5488C440.242 63.6322 440.203 63.7462 440.203 63.8907C440.203 64.0882 440.276 64.2375 440.422 64.3386C440.57 64.4381 440.757 64.4879 440.983 64.4879ZM446.249 62.0413L445.739 62.1858C445.707 62.1007 445.659 62.018 445.597 61.9377C445.536 61.8558 445.452 61.7884 445.346 61.7354C445.24 61.6825 445.105 61.656 444.939 61.656C444.713 61.656 444.524 61.7081 444.373 61.8125C444.224 61.9152 444.149 62.0461 444.149 62.205C444.149 62.3463 444.201 62.4579 444.303 62.5397C444.406 62.6216 444.567 62.6899 444.785 62.7444L445.334 62.8793C445.665 62.9596 445.911 63.0824 446.073 63.2477C446.236 63.4115 446.317 63.6226 446.317 63.8811C446.317 64.093 446.256 64.2824 446.134 64.4494C446.013 64.6163 445.845 64.748 445.628 64.8443C445.411 64.9406 445.159 64.9888 444.872 64.9888C444.495 64.9888 444.182 64.9069 443.935 64.7432C443.688 64.5794 443.531 64.3402 443.465 64.0256L444.005 63.8907C444.056 64.0898 444.153 64.2391 444.296 64.3386C444.441 64.4381 444.629 64.4879 444.862 64.4879C445.127 64.4879 445.337 64.4317 445.493 64.3193C445.65 64.2054 445.729 64.0689 445.729 63.91C445.729 63.7815 445.684 63.674 445.594 63.5873C445.504 63.499 445.366 63.4332 445.18 63.3898L444.564 63.2453C444.225 63.1651 443.976 63.0406 443.817 62.8721C443.66 62.7019 443.581 62.4892 443.581 62.2339C443.581 62.0252 443.64 61.8406 443.757 61.6801C443.876 61.5195 444.037 61.3935 444.241 61.302C444.446 61.2105 444.679 61.1647 444.939 61.1647C445.305 61.1647 445.593 61.245 445.801 61.4055C446.012 61.5661 446.161 61.778 446.249 62.0413ZM449.792 62.0413L449.282 62.1858C449.25 62.1007 449.202 62.018 449.14 61.9377C449.079 61.8558 448.995 61.7884 448.889 61.7354C448.783 61.6825 448.648 61.656 448.482 61.656C448.256 61.656 448.067 61.7081 447.916 61.8125C447.767 61.9152 447.692 62.0461 447.692 62.205C447.692 62.3463 447.744 62.4579 447.846 62.5397C447.949 62.6216 448.11 62.6899 448.328 62.7444L448.877 62.8793C449.208 62.9596 449.454 63.0824 449.616 63.2477C449.779 63.4115 449.86 63.6226 449.86 63.8811C449.86 64.093 449.799 64.2824 449.677 64.4494C449.556 64.6163 449.388 64.748 449.171 64.8443C448.954 64.9406 448.702 64.9888 448.415 64.9888C448.037 64.9888 447.725 64.9069 447.478 64.7432C447.231 64.5794 447.074 64.3402 447.008 64.0256L447.548 63.8907C447.599 64.0898 447.696 64.2391 447.839 64.3386C447.984 64.4381 448.172 64.4879 448.405 64.4879C448.67 64.4879 448.88 64.4317 449.036 64.3193C449.193 64.2054 449.272 64.0689 449.272 63.91C449.272 63.7815 449.227 63.674 449.137 63.5873C449.047 63.499 448.909 63.4332 448.723 63.3898L448.106 63.2453C447.768 63.1651 447.519 63.0406 447.36 62.8721C447.203 62.7019 447.124 62.4892 447.124 62.2339C447.124 62.0252 447.183 61.8406 447.3 61.6801C447.419 61.5195 447.58 61.3935 447.784 61.302C447.989 61.2105 448.222 61.1647 448.482 61.1647C448.848 61.1647 449.136 61.245 449.344 61.4055C449.555 61.5661 449.704 61.778 449.792 62.0413ZM453.046 63.3994V61.2129H453.614V64.9117H453.046V64.2856H453.008C452.921 64.4735 452.786 64.6332 452.603 64.7648C452.42 64.8949 452.189 64.9599 451.91 64.9599C451.678 64.9599 451.473 64.9093 451.293 64.8082C451.113 64.7054 450.972 64.5513 450.869 64.3458C450.766 64.1387 450.715 63.8779 450.715 63.5632V61.2129H451.283V63.5247C451.283 63.7944 451.359 64.0095 451.51 64.17C451.662 64.3306 451.857 64.4109 452.093 64.4109C452.234 64.4109 452.377 64.3747 452.524 64.3025C452.671 64.2302 452.795 64.1195 452.894 63.9702C452.996 63.8209 453.046 63.6306 453.046 63.3994ZM454.655 64.9117V61.2129H455.204V61.7716H455.243C455.31 61.5885 455.432 61.44 455.609 61.3261C455.786 61.2121 455.985 61.1551 456.206 61.1551C456.248 61.1551 456.3 61.1559 456.363 61.1575C456.425 61.1591 456.473 61.1615 456.505 61.1647V61.7427C456.486 61.7378 456.441 61.7306 456.372 61.721C456.305 61.7098 456.233 61.7041 456.158 61.7041C455.978 61.7041 455.818 61.7419 455.676 61.8173C455.537 61.8912 455.426 61.9939 455.344 62.1256C455.264 62.2556 455.224 62.4041 455.224 62.5711V64.9117H454.655ZM458.267 64.9984C458.033 64.9984 457.82 64.9543 457.629 64.866C457.438 64.7761 457.286 64.6469 457.174 64.4783C457.061 64.3081 457.005 64.1026 457.005 63.8618C457.005 63.6499 457.047 63.4781 457.13 63.3465C457.214 63.2132 457.325 63.1089 457.465 63.0334C457.605 62.958 457.759 62.9018 457.927 62.8648C458.098 62.8263 458.269 62.7958 458.44 62.7733C458.665 62.7444 458.847 62.7228 458.987 62.7083C459.128 62.6923 459.231 62.6658 459.295 62.6289C459.361 62.5919 459.394 62.5277 459.394 62.4362V62.4169C459.394 62.1793 459.329 61.9947 459.199 61.8631C459.07 61.7314 458.875 61.6656 458.614 61.6656C458.342 61.6656 458.13 61.725 457.976 61.8438C457.821 61.9626 457.713 62.0894 457.65 62.2243L457.111 62.0316C457.207 61.8069 457.336 61.6319 457.496 61.5067C457.658 61.3798 457.835 61.2915 458.026 61.2418C458.219 61.1904 458.408 61.1647 458.594 61.1647C458.713 61.1647 458.85 61.1792 459.004 61.2081C459.16 61.2354 459.31 61.2923 459.454 61.379C459.6 61.4657 459.721 61.5966 459.818 61.7716C459.914 61.9466 459.962 62.1809 459.962 62.4747V64.9117H459.394V64.4109H459.365C459.326 64.4911 459.262 64.577 459.172 64.6685C459.082 64.76 458.963 64.8379 458.814 64.9021C458.664 64.9663 458.482 64.9984 458.267 64.9984ZM458.354 64.4879C458.578 64.4879 458.768 64.4438 458.922 64.3555C459.078 64.2672 459.195 64.1532 459.274 64.0135C459.354 63.8738 459.394 63.727 459.394 63.5728V63.0527C459.37 63.0816 459.317 63.1081 459.235 63.1321C459.155 63.1546 459.062 63.1747 458.956 63.1923C458.851 63.2084 458.749 63.2229 458.65 63.2357C458.552 63.2469 458.472 63.2566 458.411 63.2646C458.264 63.2839 458.126 63.3152 457.997 63.3585C457.87 63.4002 457.768 63.4637 457.689 63.5488C457.612 63.6322 457.573 63.7462 457.573 63.8907C457.573 64.0882 457.646 64.2375 457.793 64.3386C457.94 64.4381 458.127 64.4879 458.354 64.4879ZM461.568 62.6866V64.9117H461V61.2129H461.549V61.7908H461.597C461.683 61.603 461.815 61.4521 461.992 61.3381C462.168 61.2225 462.396 61.1647 462.676 61.1647C462.926 61.1647 463.145 61.2161 463.333 61.3188C463.521 61.42 463.667 61.5741 463.771 61.7812C463.876 61.9867 463.928 62.2468 463.928 62.5614V64.9117H463.359V62.6C463.359 62.3094 463.284 62.083 463.133 61.9209C462.982 61.7571 462.775 61.6752 462.512 61.6752C462.33 61.6752 462.168 61.7146 462.025 61.7932C461.884 61.8719 461.773 61.9867 461.691 62.1376C461.609 62.2885 461.568 62.4715 461.568 62.6866ZM466.469 64.9888C466.122 64.9888 465.824 64.9069 465.573 64.7432C465.323 64.5794 465.13 64.3539 464.995 64.0665C464.86 63.7791 464.793 63.4508 464.793 63.0816C464.793 62.7059 464.862 62.3744 465 62.087C465.14 61.7981 465.334 61.5725 465.583 61.4103C465.833 61.2466 466.125 61.1647 466.459 61.1647C466.719 61.1647 466.954 61.2129 467.163 61.3092C467.371 61.4055 467.542 61.5404 467.675 61.7138C467.809 61.8872 467.891 62.0894 467.923 62.3206H467.355C467.312 62.152 467.215 62.0027 467.066 61.8727C466.918 61.7411 466.719 61.6752 466.469 61.6752C466.247 61.6752 466.053 61.733 465.886 61.8486C465.721 61.9626 465.592 62.1239 465.498 62.3327C465.407 62.5397 465.361 62.783 465.361 63.0623C465.361 63.3481 465.406 63.5969 465.496 63.8088C465.588 64.0207 465.716 64.1853 465.881 64.3025C466.048 64.4197 466.244 64.4783 466.469 64.4783C466.617 64.4783 466.751 64.4526 466.871 64.4012C466.992 64.3498 467.093 64.276 467.177 64.1797C467.26 64.0834 467.32 63.9678 467.355 63.8329H467.923C467.891 64.0512 467.812 64.2479 467.685 64.4229C467.56 64.5963 467.394 64.7343 467.187 64.8371C466.981 64.9382 466.742 64.9888 466.469 64.9888ZM470.305 64.9888C469.949 64.9888 469.641 64.9101 469.383 64.7528C469.126 64.5939 468.928 64.3723 468.788 64.0882C468.65 63.8024 468.581 63.4701 468.581 63.0912C468.581 62.7123 468.65 62.3784 468.788 62.0894C468.928 61.7989 469.122 61.5725 469.371 61.4103C469.621 61.2466 469.913 61.1647 470.247 61.1647C470.44 61.1647 470.63 61.1968 470.818 61.261C471.006 61.3253 471.177 61.4296 471.331 61.5741C471.485 61.717 471.608 61.9064 471.699 62.1424C471.791 62.3784 471.837 62.669 471.837 63.0141V63.255H468.985V62.7637H471.259C471.259 62.555 471.217 62.3688 471.133 62.205C471.052 62.0413 470.934 61.912 470.782 61.8173C470.631 61.7226 470.453 61.6752 470.247 61.6752C470.021 61.6752 469.825 61.7314 469.66 61.8438C469.496 61.9546 469.37 62.0991 469.282 62.2773C469.193 62.4555 469.149 62.6465 469.149 62.8504V63.1779C469.149 63.4572 469.197 63.694 469.294 63.8883C469.392 64.0809 469.527 64.2278 469.701 64.329C469.874 64.4285 470.076 64.4783 470.305 64.4783C470.454 64.4783 470.589 64.4574 470.71 64.4157C470.832 64.3723 470.937 64.3081 471.025 64.223C471.113 64.1363 471.182 64.0288 471.23 63.9003L471.779 64.0545C471.721 64.2407 471.624 64.4044 471.487 64.5457C471.351 64.6854 471.182 64.7945 470.982 64.8732C470.781 64.9503 470.556 64.9888 470.305 64.9888Z" fill="#4D4D4D"/>
<g clip-path="url(#clip2_2004_112)">
<path d="M518.176 68.4603C515.765 68.4603 513.827 66.5228 513.827 64.1117V62.5617C513.827 60.1506 515.765 58.2131 518.176 58.2131H519.726C522.137 58.2131 524.074 60.1506 524.074 62.5617V64.1117C524.074 66.5228 522.137 68.4603 519.726 68.4603H518.176ZM518.176 58.6436C516.023 58.6436 514.258 60.4089 514.258 62.5617V64.1117C514.258 66.2645 516.023 68.0298 518.176 68.0298H519.726C521.878 68.0298 523.644 66.2645 523.644 64.1117V62.5617C523.644 60.4089 521.878 58.6436 519.726 58.6436H518.176Z" fill="#05A845"/>
<path d="M518.95 63.6814C518.735 63.6814 518.605 63.5092 518.605 63.337C518.605 63.1217 518.778 62.9926 518.95 62.9926C519.165 62.9926 519.294 63.1648 519.294 63.337C519.294 63.5523 519.165 63.6814 518.95 63.6814ZM518.95 63.2509C518.907 63.2509 518.864 63.2939 518.864 63.337C518.864 63.4231 519.036 63.4231 519.036 63.337C519.036 63.2939 518.993 63.2509 518.95 63.2509Z" fill="#05A845"/>
<path d="M519.165 59.7198H518.735V60.3226H519.165V59.7198Z" fill="#05A845"/>
<path d="M519.165 66.3075H518.735V66.9103H519.165V66.3075Z" fill="#05A845"/>
<path d="M522.524 63.1218H521.921V63.5524H522.524V63.1218Z" fill="#05A845"/>
<path d="M515.937 63.1218H515.334V63.5524H515.937V63.1218Z" fill="#05A845"/>
<path d="M517.641 60.6548L517.342 60.1318L516.968 60.3458L517.268 60.8688L517.641 60.6548Z" fill="#05A845"/>
<path d="M520.935 66.3289L520.634 65.8067L520.26 66.0216L520.562 66.5439L520.935 66.3289Z" fill="#05A845"/>
<path d="M522.156 61.7285L521.942 61.3552L521.419 61.6553L521.633 62.0287L522.156 61.7285Z" fill="#05A845"/>
<path d="M516.482 65.0193L516.266 64.6465L515.707 64.9697L515.923 65.3424L516.482 65.0193Z" fill="#05A845"/>
<path d="M516.473 61.6694L515.952 61.3673L515.736 61.7399L516.257 62.042L516.473 61.6694Z" fill="#05A845"/>
<path d="M522.167 64.935L521.645 64.6337L521.43 65.0066L521.952 65.3079L522.167 64.935Z" fill="#05A845"/>
<path d="M520.924 60.3378L520.551 60.1224L520.249 60.6443L520.622 60.8597L520.924 60.3378Z" fill="#05A845"/>
<path d="M517.654 66.0308L517.281 65.8164L516.98 66.3391L517.354 66.5535L517.654 66.0308Z" fill="#05A845"/>
<path d="M518.95 63.5523C518.821 63.5523 518.735 63.4662 518.735 63.337V60.9259C518.735 60.7967 518.821 60.7106 518.95 60.7106C519.079 60.7106 519.165 60.7967 519.165 60.9259V63.337C519.165 63.4662 519.079 63.5523 518.95 63.5523Z" fill="#05A845"/>
<path d="M518.175 63.1218H516.841V63.5524H518.175V63.1218Z" fill="#05A845"/>
</g>
<path d="M529.407 64.9119V64.4785L531.035 62.6965C531.226 62.4878 531.384 62.3063 531.507 62.1522C531.631 61.9965 531.722 61.8504 531.782 61.7139C531.843 61.5759 531.873 61.4314 531.873 61.2805C531.873 61.1071 531.832 60.957 531.748 60.8302C531.666 60.7033 531.554 60.6054 531.411 60.5364C531.268 60.4673 531.108 60.4328 530.929 60.4328C530.74 60.4328 530.575 60.4722 530.433 60.5508C530.294 60.6279 530.185 60.7363 530.108 60.8759C530.033 61.0156 529.995 61.1793 529.995 61.3672H529.427C529.427 61.0782 529.493 60.8246 529.627 60.6062C529.76 60.3879 529.941 60.2177 530.171 60.0957C530.402 59.9737 530.661 59.9127 530.949 59.9127C531.238 59.9127 531.494 59.9737 531.717 60.0957C531.94 60.2177 532.115 60.3823 532.242 60.5894C532.369 60.7965 532.432 61.0268 532.432 61.2805C532.432 61.4619 532.399 61.6393 532.333 61.8127C532.269 61.9845 532.157 62.1763 531.996 62.3882C531.837 62.5985 531.617 62.8554 531.334 63.1588L530.226 64.3436V64.3821H532.519V64.9119H529.407ZM533.292 63.9005V63.4093L535.459 59.9801H535.815V60.7411H535.575L533.937 63.3322V63.3707H536.856V63.9005H533.292ZM535.613 64.9119V63.7512V63.5224V59.9801H536.182V64.9119H535.613ZM539.511 59.7489L537.922 65.6536H537.402L538.991 59.7489H539.511ZM540.329 64.9119L542.535 60.5484V60.5099H539.992V59.9801H543.152V60.5388L540.956 64.9119H540.329ZM547.363 64.989C547.055 64.989 546.783 64.9111 546.547 64.7554C546.311 64.5981 546.126 64.3765 545.993 64.0908C545.86 63.8034 545.793 63.4638 545.793 63.0721C545.793 62.6836 545.86 62.3465 545.993 62.0607C546.126 61.775 546.311 61.5542 546.549 61.3985C546.787 61.2428 547.061 61.1649 547.373 61.1649C547.613 61.1649 547.804 61.205 547.943 61.2853C548.085 61.364 548.192 61.4539 548.266 61.555C548.341 61.6545 548.4 61.7364 548.442 61.8006H548.49V59.9801H549.058V64.9119H548.509V64.3436H548.442C548.4 64.411 548.341 64.4961 548.264 64.5989C548.187 64.7 548.077 64.7907 547.934 64.871C547.791 64.9497 547.601 64.989 547.363 64.989ZM547.44 64.4785C547.668 64.4785 547.861 64.4191 548.018 64.3003C548.175 64.1799 548.295 64.0137 548.377 63.8018C548.459 63.5883 548.5 63.3418 548.5 63.0625C548.5 62.7864 548.459 62.5447 548.379 62.3377C548.299 62.1289 548.18 61.9668 548.023 61.8512C547.865 61.734 547.671 61.6754 547.44 61.6754C547.199 61.6754 546.999 61.7372 546.838 61.8608C546.679 61.9829 546.559 62.149 546.479 62.3593C546.401 62.568 546.361 62.8024 546.361 63.0625C546.361 63.3258 546.401 63.565 546.482 63.7801C546.564 63.9936 546.684 64.1638 546.843 64.2906C547.003 64.4159 547.202 64.4785 547.44 64.4785ZM551.729 64.989C551.373 64.989 551.065 64.9103 550.807 64.753C550.55 64.5941 550.351 64.3725 550.212 64.0884C550.074 63.8026 550.005 63.4703 550.005 63.0914C550.005 62.7125 550.074 62.3786 550.212 62.0896C550.351 61.799 550.546 61.5727 550.795 61.4105C551.045 61.2468 551.337 61.1649 551.671 61.1649C551.864 61.1649 552.054 61.197 552.242 61.2612C552.43 61.3254 552.601 61.4298 552.755 61.5743C552.909 61.7172 553.032 61.9066 553.123 62.1426C553.215 62.3786 553.26 62.6692 553.26 63.0143V63.2551H550.409V62.7639H552.683C552.683 62.5552 552.641 62.369 552.557 62.2052C552.475 62.0415 552.358 61.9122 552.206 61.8175C552.055 61.7228 551.877 61.6754 551.671 61.6754C551.445 61.6754 551.249 61.7316 551.084 61.844C550.92 61.9548 550.794 62.0992 550.705 62.2774C550.617 62.4556 550.573 62.6467 550.573 62.8506V63.1781C550.573 63.4574 550.621 63.6942 550.718 63.8885C550.815 64.0811 550.951 64.228 551.124 64.3292C551.298 64.4287 551.499 64.4785 551.729 64.4785C551.878 64.4785 552.013 64.4576 552.133 64.4159C552.255 64.3725 552.361 64.3083 552.449 64.2232C552.537 64.1365 552.605 64.029 552.654 63.9005L553.203 64.0546C553.145 64.2409 553.048 64.4046 552.911 64.5459C552.775 64.6856 552.606 64.7947 552.406 64.8734C552.205 64.9505 551.979 64.989 551.729 64.989ZM554.693 59.9801V64.9119H554.125V59.9801H554.693ZM555.734 64.9119V61.2131H556.303V64.9119H555.734ZM556.023 60.5966C555.912 60.5966 555.817 60.5589 555.737 60.4834C555.658 60.4079 555.619 60.3172 555.619 60.2113C555.619 60.1053 555.658 60.0146 555.737 59.9392C555.817 59.8637 555.912 59.826 556.023 59.826C556.134 59.826 556.229 59.8637 556.307 59.9392C556.388 60.0146 556.428 60.1053 556.428 60.2113C556.428 60.3172 556.388 60.4079 556.307 60.4834C556.229 60.5589 556.134 60.5966 556.023 60.5966ZM560.368 61.2131L559 64.9119H558.422L557.054 61.2131H557.671L558.692 64.1606H558.731L559.752 61.2131H560.368ZM562.537 64.989C562.18 64.989 561.873 64.9103 561.614 64.753C561.357 64.5941 561.159 64.3725 561.019 64.0884C560.881 63.8026 560.812 63.4703 560.812 63.0914C560.812 62.7125 560.881 62.3786 561.019 62.0896C561.159 61.799 561.353 61.5727 561.602 61.4105C561.853 61.2468 562.145 61.1649 562.479 61.1649C562.671 61.1649 562.862 61.197 563.049 61.2612C563.237 61.3254 563.408 61.4298 563.562 61.5743C563.717 61.7172 563.839 61.9066 563.931 62.1426C564.022 62.3786 564.068 62.6692 564.068 63.0143V63.2551H561.217V62.7639H563.49C563.49 62.5552 563.448 62.369 563.365 62.2052C563.283 62.0415 563.166 61.9122 563.013 61.8175C562.862 61.7228 562.684 61.6754 562.479 61.6754C562.252 61.6754 562.057 61.7316 561.891 61.844C561.727 61.9548 561.601 62.0992 561.513 62.2774C561.425 62.4556 561.381 62.6467 561.381 62.8506V63.1781C561.381 63.4574 561.429 63.6942 561.525 63.8885C561.623 64.0811 561.759 64.228 561.932 64.3292C562.105 64.4287 562.307 64.4785 562.537 64.4785C562.686 64.4785 562.821 64.4576 562.941 64.4159C563.063 64.3725 563.168 64.3083 563.257 64.2232C563.345 64.1365 563.413 64.029 563.461 63.9005L564.01 64.0546C563.953 64.2409 563.855 64.4046 563.719 64.5459C563.582 64.6856 563.414 64.7947 563.213 64.8734C563.013 64.9505 562.787 64.989 562.537 64.989ZM564.933 64.9119V61.2131H565.482V61.7717H565.52C565.588 61.5887 565.71 61.4402 565.886 61.3262C566.063 61.2123 566.262 61.1553 566.483 61.1553C566.525 61.1553 566.577 61.1561 566.64 61.1577C566.703 61.1593 566.75 61.1617 566.782 61.1649V61.7428C566.763 61.738 566.719 61.7308 566.65 61.7212C566.582 61.7099 566.511 61.7043 566.435 61.7043C566.255 61.7043 566.095 61.742 565.954 61.8175C565.814 61.8913 565.703 61.9941 565.621 62.1257C565.541 62.2558 565.501 62.4043 565.501 62.5712V64.9119H564.933ZM567.934 66.299C567.838 66.299 567.752 66.291 567.677 66.2749C567.601 66.2605 567.549 66.246 567.52 66.2316L567.665 65.7307C567.803 65.766 567.925 65.7788 568.031 65.7692C568.137 65.7596 568.231 65.7122 568.312 65.6271C568.396 65.5437 568.472 65.408 568.541 65.2202L568.647 64.9312L567.279 61.2131H567.896L568.917 64.1606H568.955L569.976 61.2131H570.593L569.023 65.4513C568.952 65.6424 568.865 65.8005 568.76 65.9257C568.656 66.0526 568.535 66.1465 568.397 66.2075C568.26 66.2685 568.106 66.299 567.934 66.299ZM575.87 62.0415L575.36 62.1859C575.328 62.1009 575.28 62.0182 575.218 61.9379C575.157 61.856 575.073 61.7886 574.967 61.7356C574.861 61.6826 574.726 61.6562 574.56 61.6562C574.334 61.6562 574.145 61.7083 573.994 61.8127C573.845 61.9154 573.77 62.0463 573.77 62.2052C573.77 62.3465 573.822 62.4581 573.925 62.5399C574.027 62.6218 574.188 62.69 574.406 62.7446L574.955 62.8795C575.286 62.9597 575.532 63.0826 575.694 63.2479C575.857 63.4117 575.938 63.6228 575.938 63.8813C575.938 64.0932 575.877 64.2826 575.755 64.4496C575.634 64.6165 575.466 64.7482 575.249 64.8445C575.032 64.9408 574.78 64.989 574.493 64.989C574.116 64.989 573.803 64.9071 573.556 64.7434C573.309 64.5796 573.152 64.3404 573.086 64.0257L573.626 63.8909C573.677 64.09 573.774 64.2393 573.917 64.3388C574.062 64.4383 574.25 64.4881 574.483 64.4881C574.748 64.4881 574.958 64.4319 575.114 64.3195C575.271 64.2055 575.35 64.0691 575.35 63.9102C575.35 63.7817 575.305 63.6742 575.215 63.5875C575.125 63.4992 574.987 63.4333 574.801 63.39L574.185 63.2455C573.846 63.1652 573.597 63.0408 573.438 62.8723C573.281 62.7021 573.202 62.4894 573.202 62.2341C573.202 62.0254 573.261 61.8408 573.378 61.6802C573.497 61.5197 573.658 61.3937 573.862 61.3022C574.067 61.2107 574.3 61.1649 574.56 61.1649C574.926 61.1649 575.214 61.2452 575.422 61.4057C575.633 61.5663 575.782 61.7782 575.87 62.0415ZM578.344 64.989C577.988 64.989 577.68 64.9103 577.422 64.753C577.165 64.5941 576.967 64.3725 576.827 64.0884C576.689 63.8026 576.62 63.4703 576.62 63.0914C576.62 62.7125 576.689 62.3786 576.827 62.0896C576.967 61.799 577.161 61.5727 577.41 61.4105C577.66 61.2468 577.952 61.1649 578.286 61.1649C578.479 61.1649 578.669 61.197 578.857 61.2612C579.045 61.3254 579.216 61.4298 579.37 61.5743C579.524 61.7172 579.647 61.9066 579.738 62.1426C579.83 62.3786 579.876 62.6692 579.876 63.0143V63.2551H577.024V62.7639H579.298C579.298 62.5552 579.256 62.369 579.172 62.2052C579.091 62.0415 578.973 61.9122 578.821 61.8175C578.67 61.7228 578.492 61.6754 578.286 61.6754C578.06 61.6754 577.864 61.7316 577.699 61.844C577.535 61.9548 577.409 62.0992 577.321 62.2774C577.232 62.4556 577.188 62.6467 577.188 62.8506V63.1781C577.188 63.4574 577.236 63.6942 577.333 63.8885C577.431 64.0811 577.566 64.228 577.74 64.3292C577.913 64.4287 578.114 64.4785 578.344 64.4785C578.493 64.4785 578.628 64.4576 578.749 64.4159C578.871 64.3725 578.976 64.3083 579.064 64.2232C579.152 64.1365 579.221 64.029 579.269 63.9005L579.818 64.0546C579.76 64.2409 579.663 64.4046 579.526 64.5459C579.39 64.6856 579.221 64.7947 579.021 64.8734C578.82 64.9505 578.594 64.989 578.344 64.989ZM580.74 64.9119V61.2131H581.289V61.7717H581.328C581.395 61.5887 581.517 61.4402 581.694 61.3262C581.87 61.2123 582.069 61.1553 582.291 61.1553C582.333 61.1553 582.385 61.1561 582.447 61.1577C582.51 61.1593 582.557 61.1617 582.59 61.1649V61.7428C582.57 61.738 582.526 61.7308 582.457 61.7212C582.39 61.7099 582.318 61.7043 582.243 61.7043C582.063 61.7043 581.902 61.742 581.761 61.8175C581.621 61.8913 581.511 61.9941 581.429 62.1257C581.349 62.2558 581.308 62.4043 581.308 62.5712V64.9119H580.74ZM586.4 61.2131L585.033 64.9119H584.455L583.087 61.2131H583.703L584.724 64.1606H584.763L585.784 61.2131H586.4ZM587.15 64.9119V61.2131H587.719V64.9119H587.15ZM587.439 60.5966C587.329 60.5966 587.233 60.5589 587.153 60.4834C587.074 60.4079 587.035 60.3172 587.035 60.2113C587.035 60.1053 587.074 60.0146 587.153 59.9392C587.233 59.8637 587.329 59.826 587.439 59.826C587.55 59.826 587.645 59.8637 587.724 59.9392C587.804 60.0146 587.844 60.1053 587.844 60.2113C587.844 60.3172 587.804 60.4079 587.724 60.4834C587.645 60.5589 587.55 60.5966 587.439 60.5966ZM590.262 64.989C589.916 64.989 589.617 64.9071 589.367 64.7434C589.116 64.5796 588.923 64.354 588.789 64.0667C588.654 63.7793 588.586 63.451 588.586 63.0818C588.586 62.7061 588.655 62.3746 588.793 62.0872C588.933 61.7982 589.127 61.5727 589.376 61.4105C589.627 61.2468 589.919 61.1649 590.253 61.1649C590.513 61.1649 590.747 61.2131 590.956 61.3094C591.165 61.4057 591.336 61.5406 591.469 61.7139C591.602 61.8873 591.685 62.0896 591.717 62.3208H591.149C591.105 62.1522 591.009 62.0029 590.86 61.8729C590.712 61.7412 590.513 61.6754 590.262 61.6754C590.041 61.6754 589.847 61.7332 589.68 61.8488C589.514 61.9628 589.385 62.1241 589.292 62.3328C589.2 62.5399 589.155 62.7832 589.155 63.0625C589.155 63.3483 589.2 63.5971 589.289 63.809C589.381 64.0209 589.509 64.1855 589.675 64.3027C589.842 64.4199 590.038 64.4785 590.262 64.4785C590.41 64.4785 590.544 64.4528 590.665 64.4014C590.785 64.35 590.887 64.2762 590.97 64.1799C591.054 64.0835 591.113 63.9679 591.149 63.8331H591.717C591.685 64.0514 591.605 64.2481 591.478 64.4231C591.353 64.5965 591.187 64.7345 590.98 64.8373C590.774 64.9384 590.535 64.989 590.262 64.989ZM594.098 64.989C593.742 64.989 593.435 64.9103 593.176 64.753C592.919 64.5941 592.721 64.3725 592.581 64.0884C592.443 63.8026 592.374 63.4703 592.374 63.0914C592.374 62.7125 592.443 62.3786 592.581 62.0896C592.721 61.799 592.915 61.5727 593.164 61.4105C593.415 61.2468 593.707 61.1649 594.041 61.1649C594.233 61.1649 594.424 61.197 594.611 61.2612C594.799 61.3254 594.97 61.4298 595.124 61.5743C595.278 61.7172 595.401 61.9066 595.493 62.1426C595.584 62.3786 595.63 62.6692 595.63 63.0143V63.2551H592.779V62.7639H595.052C595.052 62.5552 595.01 62.369 594.927 62.2052C594.845 62.0415 594.728 61.9122 594.575 61.8175C594.424 61.7228 594.246 61.6754 594.041 61.6754C593.814 61.6754 593.618 61.7316 593.453 61.844C593.289 61.9548 593.163 62.0992 593.075 62.2774C592.987 62.4556 592.943 62.6467 592.943 62.8506V63.1781C592.943 63.4574 592.991 63.6942 593.087 63.8885C593.185 64.0811 593.321 64.228 593.494 64.3292C593.667 64.4287 593.869 64.4785 594.098 64.4785C594.248 64.4785 594.383 64.4576 594.503 64.4159C594.625 64.3725 594.73 64.3083 594.819 64.2232C594.907 64.1365 594.975 64.029 595.023 63.9005L595.572 64.0546C595.514 64.2409 595.417 64.4046 595.281 64.5459C595.144 64.6856 594.976 64.7947 594.775 64.8734C594.574 64.9505 594.349 64.989 594.098 64.989Z" fill="#4D4D4D"/>
<path d="M373.183 96.7344H372.665C372.634 96.5855 372.581 96.4547 372.504 96.342C372.429 96.2293 372.337 96.1347 372.229 96.0582C372.122 95.9803 372.003 95.9218 371.872 95.8829C371.741 95.8439 371.605 95.8244 371.463 95.8244C371.204 95.8244 370.97 95.8898 370.76 96.0206C370.551 96.1514 370.385 96.3441 370.261 96.5987C370.138 96.8533 370.077 97.1657 370.077 97.5358C370.077 97.9059 370.138 98.2183 370.261 98.4729C370.385 98.7275 370.551 98.9202 370.76 99.051C370.97 99.1818 371.204 99.2472 371.463 99.2472C371.605 99.2472 371.741 99.2277 371.872 99.1887C372.003 99.1498 372.122 99.092 372.229 99.0155C372.337 98.9376 372.429 98.8423 372.504 98.7296C372.581 98.6155 372.634 98.4847 372.665 98.3372H373.183C373.144 98.5557 373.073 98.7511 372.97 98.9237C372.867 99.0962 372.739 99.243 372.586 99.364C372.433 99.4837 372.261 99.5748 372.07 99.6374C371.881 99.7 371.679 99.7313 371.463 99.7313C371.098 99.7313 370.774 99.6423 370.49 99.4642C370.207 99.2861 369.983 99.0329 369.82 98.7045C369.658 98.3762 369.576 97.9866 369.576 97.5358C369.576 97.085 369.658 96.6954 369.82 96.3671C369.983 96.0387 370.207 95.7855 370.49 95.6074C370.774 95.4293 371.098 95.3402 371.463 95.3402C371.679 95.3402 371.881 95.3715 372.07 95.4341C372.261 95.4968 372.433 95.5886 372.586 95.7096C372.739 95.8293 372.867 95.9754 372.97 96.1479C373.073 96.3191 373.144 96.5145 373.183 96.7344ZM375.255 99.7397C374.965 99.7397 374.711 99.6708 374.493 99.5331C374.276 99.3953 374.106 99.2026 373.984 98.955C373.863 98.7073 373.802 98.4179 373.802 98.0868C373.802 97.7528 373.863 97.4614 373.984 97.2123C374.106 96.9632 374.276 96.7699 374.493 96.6321C374.711 96.4944 374.965 96.4255 375.255 96.4255C375.544 96.4255 375.797 96.4944 376.014 96.6321C376.233 96.7699 376.402 96.9632 376.523 97.2123C376.646 97.4614 376.707 97.7528 376.707 98.0868C376.707 98.4179 376.646 98.7073 376.523 98.955C376.402 99.2026 376.233 99.3953 376.014 99.5331C375.797 99.6708 375.544 99.7397 375.255 99.7397ZM375.255 99.2972C375.474 99.2972 375.655 99.2409 375.797 99.1282C375.939 99.0155 376.044 98.8673 376.112 98.6837C376.181 98.5 376.215 98.301 376.215 98.0868C376.215 97.8725 376.181 97.6728 376.112 97.4878C376.044 97.3027 375.939 97.1532 375.797 97.0391C375.655 96.925 375.474 96.8679 375.255 96.8679C375.035 96.8679 374.854 96.925 374.712 97.0391C374.57 97.1532 374.465 97.3027 374.397 97.4878C374.329 97.6728 374.295 97.8725 374.295 98.0868C374.295 98.301 374.329 98.5 374.397 98.6837C374.465 98.8673 374.57 99.0155 374.712 99.1282C374.854 99.2409 375.035 99.2972 375.255 99.2972ZM377.459 100.875V96.4672H377.935V96.9765H377.993C378.029 96.9208 378.08 96.8499 378.144 96.7636C378.209 96.6759 378.302 96.598 378.423 96.5298C378.546 96.4603 378.711 96.4255 378.92 96.4255C379.19 96.4255 379.428 96.493 379.634 96.6279C379.84 96.7629 380 96.9542 380.116 97.2019C380.231 97.4495 380.289 97.7417 380.289 98.0784C380.289 98.4179 380.231 98.7122 380.116 98.9612C380 99.2089 379.84 99.4009 379.636 99.5373C379.431 99.6722 379.195 99.7397 378.928 99.7397C378.722 99.7397 378.557 99.7056 378.434 99.6374C378.31 99.5679 378.214 99.4893 378.148 99.4016C378.081 99.3126 378.029 99.2388 377.993 99.1804H377.952V100.875H377.459ZM377.943 98.0701C377.943 98.3122 377.979 98.5257 378.05 98.7108C378.121 98.8944 378.224 99.0385 378.361 99.1428C378.497 99.2458 378.664 99.2972 378.861 99.2972C379.067 99.2972 379.239 99.243 379.377 99.1345C379.516 99.0245 379.62 98.8771 379.69 98.692C379.761 98.5056 379.796 98.2983 379.796 98.0701C379.796 97.8447 379.762 97.6415 379.692 97.4607C379.624 97.2784 379.52 97.1344 379.381 97.0286C379.243 96.9215 379.07 96.8679 378.861 96.8679C378.661 96.8679 378.493 96.9187 378.356 97.0203C378.22 97.1205 378.117 97.261 378.048 97.4419C377.978 97.6214 377.943 97.8308 377.943 98.0701ZM381.243 100.875C381.159 100.875 381.085 100.868 381.019 100.854C380.954 100.842 380.909 100.829 380.884 100.817L381.009 100.383C381.129 100.413 381.234 100.424 381.326 100.416C381.418 100.408 381.499 100.367 381.57 100.293C381.643 100.22 381.709 100.103 381.769 99.9401L381.861 99.6896L380.675 96.4672H381.209L382.094 99.0218H382.128L383.013 96.4672H383.547L382.186 100.14C382.125 100.306 382.049 100.443 381.959 100.552C381.868 100.661 381.763 100.743 381.644 100.796C381.525 100.849 381.392 100.875 381.243 100.875ZM384.197 99.6729V96.4672H384.673V96.9514H384.706C384.765 96.7928 384.87 96.6641 385.023 96.5653C385.176 96.4665 385.349 96.4171 385.541 96.4171C385.577 96.4171 385.622 96.4178 385.677 96.4192C385.731 96.4206 385.772 96.4227 385.8 96.4255V96.9264C385.783 96.9222 385.745 96.9159 385.685 96.9076C385.627 96.8979 385.565 96.893 385.499 96.893C385.343 96.893 385.204 96.9257 385.082 96.9911C384.961 97.0551 384.865 97.1441 384.794 97.2582C384.724 97.3709 384.69 97.4996 384.69 97.6443V99.6729H384.197ZM386.384 99.6729V96.4672H386.876V99.6729H386.384ZM386.634 95.933C386.538 95.933 386.455 95.9003 386.386 95.8349C386.318 95.7695 386.283 95.6909 386.283 95.599C386.283 95.5072 386.318 95.4286 386.386 95.3632C386.455 95.2978 386.538 95.2651 386.634 95.2651C386.73 95.2651 386.812 95.2978 386.88 95.3632C386.95 95.4286 386.985 95.5072 386.985 95.599C386.985 95.6909 386.95 95.7695 386.88 95.8349C386.812 95.9003 386.73 95.933 386.634 95.933ZM389.072 100.942C388.834 100.942 388.63 100.911 388.459 100.85C388.288 100.79 388.145 100.711 388.031 100.612C387.918 100.515 387.828 100.41 387.762 100.299L388.154 100.024C388.199 100.082 388.255 100.149 388.323 100.224C388.391 100.3 388.484 100.367 388.603 100.422C388.722 100.479 388.879 100.508 389.072 100.508C389.331 100.508 389.545 100.445 389.713 100.32C389.881 100.195 389.966 99.9985 389.966 99.7313V99.0802H389.924C389.888 99.1386 389.836 99.211 389.769 99.2972C389.704 99.3821 389.609 99.4579 389.486 99.5247C389.363 99.5901 389.197 99.6228 388.989 99.6228C388.73 99.6228 388.498 99.5616 388.292 99.4392C388.087 99.3167 387.925 99.1386 387.805 98.9049C387.687 98.6711 387.628 98.3873 387.628 98.0534C387.628 97.725 387.686 97.4391 387.801 97.1956C387.917 96.9507 388.077 96.7615 388.283 96.6279C388.489 96.493 388.727 96.4255 388.997 96.4255C389.206 96.4255 389.371 96.4603 389.494 96.5298C389.618 96.598 389.712 96.6759 389.778 96.7636C389.844 96.8499 389.896 96.9208 389.932 96.9765H389.982V96.4672H390.458V99.7647C390.458 100.04 390.395 100.264 390.27 100.437C390.146 100.611 389.979 100.738 389.769 100.819C389.561 100.901 389.328 100.942 389.072 100.942ZM389.056 99.1804C389.253 99.1804 389.42 99.1352 389.556 99.0447C389.693 98.9543 389.796 98.8242 389.867 98.6544C389.938 98.4847 389.974 98.2816 389.974 98.045C389.974 97.8141 389.939 97.6102 389.87 97.4335C389.8 97.2568 389.697 97.1184 389.561 97.0182C389.424 96.918 389.256 96.8679 389.056 96.8679C388.847 96.8679 388.673 96.9208 388.534 97.0266C388.396 97.1323 388.292 97.2742 388.223 97.4523C388.155 97.6304 388.121 97.828 388.121 98.045C388.121 98.2676 388.155 98.4645 388.225 98.6357C388.296 98.8054 388.4 98.939 388.538 99.0364C388.677 99.1324 388.85 99.1804 389.056 99.1804ZM391.852 97.7445V99.6729H391.36V95.3987H391.852V96.9681H391.894C391.969 96.8025 392.082 96.6711 392.232 96.5737C392.384 96.4749 392.585 96.4255 392.837 96.4255C393.056 96.4255 393.247 96.4693 393.411 96.557C393.575 96.6432 393.703 96.7761 393.793 96.9556C393.885 97.1337 393.931 97.3605 393.931 97.636V99.6729H393.438V97.6694C393.438 97.4147 393.372 97.2179 393.24 97.0787C393.109 96.9382 392.928 96.8679 392.695 96.8679C392.534 96.8679 392.389 96.902 392.261 96.9702C392.135 97.0384 392.034 97.1379 391.961 97.2687C391.888 97.3994 391.852 97.5581 391.852 97.7445ZM396.226 96.4672V96.8846H394.565V96.4672H396.226ZM395.049 95.6992H395.542V98.7546C395.542 98.8938 395.562 98.9981 395.602 99.0677C395.644 99.1358 395.697 99.1818 395.761 99.2054C395.826 99.2277 395.895 99.2388 395.967 99.2388C396.022 99.2388 396.066 99.236 396.101 99.2305C396.136 99.2235 396.163 99.2179 396.184 99.2138L396.285 99.6562C396.251 99.6687 396.205 99.6813 396.145 99.6938C396.085 99.7077 396.009 99.7147 395.917 99.7147C395.778 99.7147 395.642 99.6847 395.508 99.6249C395.376 99.5651 395.266 99.4739 395.178 99.3515C395.092 99.2291 395.049 99.0746 395.049 98.8882V95.6992ZM399.638 97.5358C399.638 97.3076 399.694 97.0996 399.805 96.9118C399.917 96.7239 400.066 96.5744 400.254 96.4631C400.442 96.3517 400.65 96.2961 400.878 96.2961C401.076 96.2961 401.258 96.3385 401.425 96.4234C401.593 96.5083 401.732 96.6245 401.842 96.7719C401.952 96.918 402.02 97.0836 402.047 97.2687H401.542C401.514 97.1253 401.437 97.0085 401.31 96.918C401.183 96.8262 401.039 96.7803 400.878 96.7803C400.739 96.7803 400.612 96.8144 400.498 96.8825C400.384 96.9507 400.293 97.0419 400.225 97.156C400.157 97.27 400.123 97.3967 400.123 97.5358C400.123 97.6749 400.157 97.8015 400.225 97.9156C400.293 98.0297 400.384 98.1209 400.498 98.189C400.612 98.2572 400.739 98.2913 400.878 98.2913C401.039 98.2913 401.176 98.2461 401.287 98.1556C401.4 98.0638 401.471 97.9462 401.5 97.8029H402.005C401.979 97.988 401.914 98.1542 401.811 98.3017C401.708 98.4478 401.576 98.5633 401.414 98.6482C401.254 98.7331 401.076 98.7755 400.878 98.7755C400.65 98.7755 400.442 98.7198 400.254 98.6085C400.066 98.4972 399.917 98.3476 399.805 98.1598C399.694 97.972 399.638 97.764 399.638 97.5358ZM400.857 99.7397C400.554 99.7397 400.269 99.6827 400.002 99.5686C399.736 99.4545 399.501 99.2966 399.298 99.0948C399.096 98.8917 398.938 98.6572 398.822 98.3915C398.708 98.1257 398.652 97.8405 398.653 97.5358C398.655 97.2311 398.712 96.9459 398.827 96.6801C398.942 96.4144 399.101 96.1806 399.302 95.9789C399.504 95.7757 399.738 95.6171 400.004 95.503C400.269 95.3889 400.554 95.3319 400.857 95.3319C401.162 95.3319 401.447 95.3889 401.713 95.503C401.98 95.6171 402.214 95.7757 402.414 95.9789C402.616 96.1806 402.774 96.4144 402.888 96.6801C403.002 96.9459 403.06 97.2311 403.061 97.5358C403.063 97.8405 403.006 98.1257 402.892 98.3915C402.778 98.6572 402.62 98.8917 402.418 99.0948C402.217 99.2966 401.982 99.4545 401.715 99.5686C401.448 99.6827 401.162 99.7397 400.857 99.7397ZM400.857 99.2555C401.095 99.2555 401.318 99.211 401.527 99.1219C401.736 99.0329 401.919 98.9098 402.076 98.7525C402.233 98.5953 402.356 98.413 402.445 98.2057C402.535 97.997 402.578 97.7744 402.577 97.5379C402.576 97.3 402.53 97.0766 402.441 96.8679C402.352 96.6592 402.229 96.4763 402.072 96.3191C401.915 96.1618 401.732 96.0387 401.525 95.9496C401.318 95.8606 401.095 95.8161 400.857 95.8161C400.621 95.8161 400.399 95.8606 400.191 95.9496C399.984 96.0387 399.802 96.1625 399.645 96.3211C399.487 96.4784 399.364 96.6613 399.273 96.87C399.184 97.0773 399.139 97.3 399.138 97.5379C399.136 97.773 399.18 97.9949 399.269 98.2036C399.358 98.411 399.481 98.5932 399.638 98.7504C399.797 98.9077 399.98 99.0315 400.187 99.1219C400.396 99.211 400.619 99.2555 400.857 99.2555ZM405.642 99.6729V99.2972L407.053 97.7528C407.219 97.572 407.355 97.4147 407.462 97.2812C407.569 97.1462 407.649 97.0196 407.7 96.9013C407.753 96.7817 407.779 96.6565 407.779 96.5257C407.779 96.3754 407.743 96.2453 407.671 96.1354C407.6 96.0255 407.503 95.9406 407.379 95.8808C407.255 95.8209 407.116 95.791 406.961 95.791C406.797 95.791 406.654 95.8251 406.531 95.8933C406.41 95.9601 406.316 96.054 406.25 96.175C406.184 96.2961 406.152 96.438 406.152 96.6008H405.659C405.659 96.3504 405.717 96.1305 405.832 95.9413C405.948 95.7521 406.105 95.6046 406.304 95.4988C406.504 95.3931 406.729 95.3402 406.978 95.3402C407.228 95.3402 407.45 95.3931 407.644 95.4988C407.837 95.6046 407.989 95.7472 408.099 95.9267C408.209 96.1062 408.264 96.3058 408.264 96.5257C408.264 96.6829 408.235 96.8366 408.178 96.9869C408.122 97.1358 408.025 97.302 407.886 97.4857C407.748 97.668 407.557 97.8906 407.312 98.1536L406.352 99.1804V99.2138H408.339V99.6729H405.642ZM410.595 99.7313C410.28 99.7313 410.013 99.6458 409.791 99.4746C409.57 99.3021 409.401 99.0524 409.284 98.7254C409.167 98.397 409.109 98.0005 409.109 97.5358C409.109 97.0739 409.167 96.6794 409.284 96.3524C409.402 96.0241 409.572 95.7736 409.793 95.6011C410.016 95.4272 410.283 95.3402 410.595 95.3402C410.906 95.3402 411.173 95.4272 411.394 95.6011C411.617 95.7736 411.786 96.0241 411.903 96.3524C412.022 96.6794 412.081 97.0739 412.081 97.5358C412.081 98.0005 412.022 98.397 411.905 98.7254C411.789 99.0524 411.62 99.3021 411.398 99.4746C411.177 99.6458 410.909 99.7313 410.595 99.7313ZM410.595 99.2722C410.906 99.2722 411.149 99.1219 411.321 98.8214C411.494 98.5209 411.58 98.0923 411.58 97.5358C411.58 97.1657 411.54 96.8505 411.461 96.5904C411.383 96.3302 411.27 96.1319 411.123 95.9956C410.977 95.8592 410.801 95.791 410.595 95.791C410.286 95.791 410.045 95.9434 409.871 96.2481C409.697 96.5514 409.61 96.9806 409.61 97.5358C409.61 97.9059 409.649 98.2203 409.727 98.4791C409.805 98.7379 409.917 98.9348 410.063 99.0698C410.21 99.2047 410.387 99.2722 410.595 99.2722ZM412.874 99.6729V99.2972L414.285 97.7528C414.45 97.572 414.587 97.4147 414.694 97.2812C414.801 97.1462 414.88 97.0196 414.932 96.9013C414.985 96.7817 415.011 96.6565 415.011 96.5257C415.011 96.3754 414.975 96.2453 414.902 96.1354C414.831 96.0255 414.734 95.9406 414.61 95.8808C414.486 95.8209 414.347 95.791 414.193 95.791C414.029 95.791 413.885 95.8251 413.763 95.8933C413.642 95.9601 413.548 96.054 413.481 96.175C413.416 96.2961 413.383 96.438 413.383 96.6008H412.891C412.891 96.3504 412.948 96.1305 413.064 95.9413C413.179 95.7521 413.336 95.6046 413.535 95.4988C413.736 95.3931 413.96 95.3402 414.21 95.3402C414.46 95.3402 414.682 95.3931 414.875 95.4988C415.069 95.6046 415.22 95.7472 415.33 95.9267C415.44 96.1062 415.495 96.3058 415.495 96.5257C415.495 96.6829 415.467 96.8366 415.41 96.9869C415.354 97.1358 415.257 97.302 415.117 97.4857C414.98 97.668 414.788 97.8906 414.543 98.1536L413.583 99.1804V99.2138H415.57V99.6729H412.874ZM416.24 98.7964V98.3706L418.119 95.3987H418.427V96.0582H418.219L416.8 98.3038V98.3372H419.329V98.7964H416.24ZM418.252 99.6729V98.667V98.4687V95.3987H418.745V99.6729H418.252ZM424.761 96.7344C424.715 96.5938 424.655 96.4679 424.579 96.3566C424.506 96.2439 424.417 96.1479 424.314 96.0686C424.213 95.9893 424.097 95.9288 423.968 95.887C423.839 95.8453 423.697 95.8244 423.542 95.8244C423.289 95.8244 423.059 95.8898 422.851 96.0206C422.644 96.1514 422.479 96.3441 422.357 96.5987C422.234 96.8533 422.173 97.1657 422.173 97.5358C422.173 97.9059 422.235 98.2183 422.359 98.4729C422.483 98.7275 422.65 98.9202 422.862 99.051C423.073 99.1818 423.311 99.2472 423.576 99.2472C423.82 99.2472 424.036 99.195 424.223 99.0906C424.41 98.9849 424.557 98.836 424.661 98.644C424.767 98.4506 424.819 98.2231 424.819 97.9615L424.978 97.9949H423.692V97.5358H425.32V97.9949C425.32 98.347 425.245 98.653 425.095 98.9132C424.946 99.1734 424.74 99.3752 424.477 99.5185C424.216 99.6604 423.915 99.7313 423.576 99.7313C423.197 99.7313 422.865 99.6423 422.578 99.4642C422.293 99.2861 422.07 99.0329 421.91 98.7045C421.752 98.3762 421.672 97.9866 421.672 97.5358C421.672 97.1977 421.717 96.8937 421.808 96.6238C421.9 96.3524 422.029 96.1215 422.196 95.9309C422.363 95.7402 422.561 95.5942 422.789 95.4926C423.017 95.391 423.268 95.3402 423.542 95.3402C423.768 95.3402 423.978 95.3743 424.173 95.4425C424.369 95.5093 424.543 95.6046 424.696 95.7284C424.851 95.8509 424.979 95.9976 425.082 96.1688C425.185 96.3385 425.256 96.5271 425.295 96.7344H424.761ZM429.813 97.5358C429.813 97.9866 429.732 98.3762 429.569 98.7045C429.406 99.0329 429.183 99.2861 428.899 99.4642C428.615 99.6423 428.291 99.7313 427.927 99.7313C427.562 99.7313 427.238 99.6423 426.954 99.4642C426.67 99.2861 426.447 99.0329 426.284 98.7045C426.121 98.3762 426.04 97.9866 426.04 97.5358C426.04 97.085 426.121 96.6954 426.284 96.3671C426.447 96.0387 426.67 95.7855 426.954 95.6074C427.238 95.4293 427.562 95.3402 427.927 95.3402C428.291 95.3402 428.615 95.4293 428.899 95.6074C429.183 95.7855 429.406 96.0387 429.569 96.3671C429.732 96.6954 429.813 97.085 429.813 97.5358ZM429.312 97.5358C429.312 97.1657 429.25 96.8533 429.127 96.5987C429.004 96.3441 428.838 96.1514 428.628 96.0206C428.419 95.8898 428.185 95.8244 427.927 95.8244C427.668 95.8244 427.433 95.8898 427.223 96.0206C427.015 96.1514 426.848 96.3441 426.724 96.5987C426.602 96.8533 426.541 97.1657 426.541 97.5358C426.541 97.9059 426.602 98.2183 426.724 98.4729C426.848 98.7275 427.015 98.9202 427.223 99.051C427.433 99.1818 427.668 99.2472 427.927 99.2472C428.185 99.2472 428.419 99.1818 428.628 99.051C428.838 98.9202 429.004 98.7275 429.127 98.4729C429.25 98.2183 429.312 97.9059 429.312 97.5358ZM432.236 98.3372H432.804L433.28 98.9633L433.405 99.1303L434.115 100.074H433.547L433.079 99.4475L432.963 99.2889L432.236 98.3372ZM434.29 97.5358C434.29 97.9866 434.209 98.3762 434.046 98.7045C433.883 99.0329 433.66 99.2861 433.376 99.4642C433.092 99.6423 432.768 99.7313 432.403 99.7313C432.039 99.7313 431.715 99.6423 431.431 99.4642C431.147 99.2861 430.924 99.0329 430.761 98.7045C430.598 98.3762 430.517 97.9866 430.517 97.5358C430.517 97.085 430.598 96.6954 430.761 96.3671C430.924 96.0387 431.147 95.7855 431.431 95.6074C431.715 95.4293 432.039 95.3402 432.403 95.3402C432.768 95.3402 433.092 95.4293 433.376 95.6074C433.66 95.7855 433.883 96.0387 434.046 96.3671C434.209 96.6954 434.29 97.085 434.29 97.5358ZM433.789 97.5358C433.789 97.1657 433.727 96.8533 433.603 96.5987C433.481 96.3441 433.315 96.1514 433.104 96.0206C432.896 95.8898 432.662 95.8244 432.403 95.8244C432.144 95.8244 431.91 95.8898 431.7 96.0206C431.491 96.1514 431.325 96.3441 431.201 96.5987C431.079 96.8533 431.017 97.1657 431.017 97.5358C431.017 97.9059 431.079 98.2183 431.201 98.4729C431.325 98.7275 431.491 98.9202 431.7 99.051C431.91 99.1818 432.144 99.2472 432.403 99.2472C432.662 99.2472 432.896 99.1818 433.104 99.051C433.315 98.9202 433.481 98.7275 433.603 98.4729C433.727 98.2183 433.789 97.9059 433.789 97.5358ZM437.114 98.3623V96.4672H437.606V99.6729H437.114V99.1303H437.08C437.005 99.2931 436.888 99.4315 436.73 99.5456C436.571 99.6583 436.371 99.7147 436.129 99.7147C435.928 99.7147 435.75 99.6708 435.594 99.5832C435.438 99.4941 435.316 99.3606 435.227 99.1825C435.138 99.003 435.093 98.7769 435.093 98.5042V96.4672H435.586V98.4708C435.586 98.7045 435.651 98.891 435.782 99.0301C435.914 99.1692 436.083 99.2388 436.287 99.2388C436.41 99.2388 436.534 99.2075 436.661 99.1449C436.789 99.0823 436.896 98.9863 436.982 98.8569C437.07 98.7275 437.114 98.5626 437.114 98.3623ZM438.508 99.6729V96.4672H439.001V99.6729H438.508ZM438.759 95.933C438.663 95.933 438.58 95.9003 438.51 95.8349C438.442 95.7695 438.408 95.6909 438.408 95.599C438.408 95.5072 438.442 95.4286 438.51 95.3632C438.58 95.2978 438.663 95.2651 438.759 95.2651C438.855 95.2651 438.937 95.2978 439.005 95.3632C439.075 95.4286 439.109 95.5072 439.109 95.599C439.109 95.6909 439.075 95.7695 439.005 95.8349C438.937 95.9003 438.855 95.933 438.759 95.933ZM441.205 99.7397C440.905 99.7397 440.646 99.6687 440.429 99.5268C440.212 99.3849 440.045 99.1894 439.928 98.9404C439.811 98.6913 439.753 98.4068 439.753 98.0868C439.753 97.7612 439.813 97.4739 439.932 97.2248C440.053 96.9744 440.222 96.7789 440.437 96.6384C440.654 96.4964 440.908 96.4255 441.197 96.4255C441.422 96.4255 441.626 96.4672 441.806 96.5507C441.987 96.6342 442.135 96.7511 442.251 96.9013C442.366 97.0516 442.438 97.2269 442.466 97.4273H441.973C441.936 97.2812 441.852 97.1518 441.723 97.0391C441.595 96.925 441.422 96.8679 441.205 96.8679C441.013 96.8679 440.845 96.918 440.7 97.0182C440.557 97.117 440.445 97.2568 440.364 97.4377C440.285 97.6172 440.245 97.828 440.245 98.0701C440.245 98.3177 440.284 98.5334 440.362 98.7171C440.441 98.9007 440.553 99.0433 440.696 99.1449C440.841 99.2465 441.011 99.2972 441.205 99.2972C441.333 99.2972 441.449 99.275 441.554 99.2305C441.658 99.1859 441.747 99.1219 441.819 99.0385C441.891 98.955 441.943 98.8548 441.973 98.7379H442.466C442.438 98.9271 442.369 99.0976 442.259 99.2492C442.151 99.3995 442.007 99.5192 441.827 99.6082C441.649 99.6959 441.442 99.7397 441.205 99.7397ZM443.645 98.5042L443.637 97.8948H443.737L445.139 96.4672H445.749L444.254 97.9782H444.213L443.645 98.5042ZM443.186 99.6729V95.3987H443.678V99.6729H443.186ZM445.223 99.6729L443.971 98.0868L444.321 97.7445L445.849 99.6729H445.223ZM446.742 99.7063C446.639 99.7063 446.55 99.6694 446.477 99.5957C446.403 99.522 446.366 99.4336 446.366 99.3306C446.366 99.2277 446.403 99.1393 446.477 99.0656C446.55 98.9918 446.639 98.955 446.742 98.955C446.845 98.955 446.933 98.9918 447.007 99.0656C447.08 99.1393 447.117 99.2277 447.117 99.3306C447.117 99.3988 447.1 99.4614 447.065 99.5185C447.032 99.5755 446.987 99.6214 446.93 99.6562C446.874 99.6896 446.811 99.7063 446.742 99.7063ZM449.896 99.6729H449.354L450.923 95.3987H451.457L453.027 99.6729H452.484L451.207 96.0749H451.173L449.896 99.6729ZM450.097 98.0033H452.284V98.4624H450.097V98.0033ZM454.118 95.3987V99.6729H453.626V95.3987H454.118ZM455.513 95.3987V99.6729H455.02V95.3987H455.513ZM458.135 99.6729V95.3987H459.579C459.913 95.3987 460.187 95.4557 460.401 95.5698C460.616 95.6825 460.774 95.8376 460.877 96.0352C460.98 96.2328 461.032 96.4575 461.032 96.7093C461.032 96.9612 460.98 97.1845 460.877 97.3793C460.774 97.5741 460.616 97.7271 460.403 97.8384C460.191 97.9483 459.919 98.0033 459.587 98.0033H458.419V97.5358H459.571C459.799 97.5358 459.983 97.5024 460.122 97.4356C460.262 97.3688 460.364 97.2742 460.426 97.1518C460.49 97.0279 460.522 96.8805 460.522 96.7093C460.522 96.5382 460.49 96.3886 460.426 96.2606C460.362 96.1326 460.26 96.0338 460.12 95.9643C459.979 95.8933 459.793 95.8578 459.562 95.8578H458.652V99.6729H458.135ZM460.147 97.7528L461.199 99.6729H460.598L459.562 97.7528H460.147ZM461.827 99.6729V96.4672H462.32V99.6729H461.827ZM462.078 95.933C461.982 95.933 461.899 95.9003 461.829 95.8349C461.761 95.7695 461.727 95.6909 461.727 95.599C461.727 95.5072 461.761 95.4286 461.829 95.3632C461.899 95.2978 461.982 95.2651 462.078 95.2651C462.174 95.2651 462.256 95.2978 462.324 95.3632C462.394 95.4286 462.428 95.5072 462.428 95.599C462.428 95.6909 462.394 95.7695 462.324 95.8349C462.256 95.9003 462.174 95.933 462.078 95.933ZM464.516 100.942C464.278 100.942 464.073 100.911 463.902 100.85C463.731 100.79 463.589 100.711 463.474 100.612C463.362 100.515 463.272 100.41 463.205 100.299L463.598 100.024C463.642 100.082 463.698 100.149 463.767 100.224C463.835 100.3 463.928 100.367 464.046 100.422C464.166 100.479 464.323 100.508 464.516 100.508C464.775 100.508 464.988 100.445 465.157 100.32C465.325 100.195 465.409 99.9985 465.409 99.7313V99.0802H465.367C465.331 99.1386 465.28 99.211 465.213 99.2972C465.148 99.3821 465.053 99.4579 464.929 99.5247C464.807 99.5901 464.641 99.6228 464.432 99.6228C464.174 99.6228 463.941 99.5616 463.735 99.4392C463.531 99.3167 463.369 99.1386 463.249 98.9049C463.131 98.6711 463.072 98.3873 463.072 98.0534C463.072 97.725 463.129 97.4391 463.245 97.1956C463.36 96.9507 463.521 96.7615 463.727 96.6279C463.933 96.493 464.171 96.4255 464.441 96.4255C464.649 96.4255 464.815 96.4603 464.937 96.5298C465.061 96.598 465.156 96.6759 465.221 96.7636C465.288 96.8499 465.34 96.9208 465.376 96.9765H465.426V96.4672H465.902V99.7647C465.902 100.04 465.839 100.264 465.714 100.437C465.59 100.611 465.423 100.738 465.213 100.819C465.004 100.901 464.772 100.942 464.516 100.942ZM464.499 99.1804C464.697 99.1804 464.864 99.1352 465 99.0447C465.136 98.9543 465.24 98.8242 465.311 98.6544C465.382 98.4847 465.418 98.2816 465.418 98.045C465.418 97.8141 465.383 97.6102 465.313 97.4335C465.244 97.2568 465.141 97.1184 465.004 97.0182C464.868 96.918 464.7 96.8679 464.499 96.8679C464.291 96.8679 464.117 96.9208 463.977 97.0266C463.84 97.1323 463.736 97.2742 463.666 97.4523C463.598 97.6304 463.564 97.828 463.564 98.045C463.564 98.2676 463.599 98.4645 463.669 98.6357C463.74 98.8054 463.844 98.939 463.982 99.0364C464.121 99.1324 464.293 99.1804 464.499 99.1804ZM467.296 97.7445V99.6729H466.803V95.3987H467.296V96.9681H467.338C467.413 96.8025 467.525 96.6711 467.676 96.5737C467.827 96.4749 468.029 96.4255 468.281 96.4255C468.499 96.4255 468.691 96.4693 468.855 96.557C469.019 96.6432 469.146 96.7761 469.237 96.9556C469.329 97.1337 469.375 97.3605 469.375 97.636V99.6729H468.882V97.6694C468.882 97.4147 468.816 97.2179 468.684 97.0787C468.553 96.9382 468.371 96.8679 468.139 96.8679C467.978 96.8679 467.833 96.902 467.705 96.9702C467.578 97.0384 467.478 97.1379 467.404 97.2687C467.332 97.3994 467.296 97.5581 467.296 97.7445ZM471.67 96.4672V96.8846H470.008V96.4672H471.67ZM470.493 95.6992H470.985V98.7546C470.985 98.8938 471.005 98.9981 471.046 99.0677C471.087 99.1358 471.14 99.1818 471.204 99.2054C471.27 99.2277 471.339 99.2388 471.411 99.2388C471.465 99.2388 471.51 99.236 471.545 99.2305C471.579 99.2235 471.607 99.2179 471.628 99.2138L471.728 99.6562C471.695 99.6687 471.648 99.6813 471.588 99.6938C471.529 99.7077 471.453 99.7147 471.361 99.7147C471.222 99.7147 471.085 99.6847 470.952 99.6249C470.82 99.5651 470.71 99.4739 470.622 99.3515C470.536 99.2291 470.493 99.0746 470.493 98.8882V95.6992ZM474.624 97.1852L474.181 97.3104C474.154 97.2366 474.113 97.165 474.058 97.0954C474.005 97.0245 473.933 96.966 473.841 96.9201C473.749 96.8742 473.632 96.8512 473.489 96.8512C473.292 96.8512 473.129 96.8965 472.998 96.9869C472.869 97.0759 472.804 97.1893 472.804 97.3271C472.804 97.4495 472.849 97.5462 472.938 97.6172C473.027 97.6881 473.166 97.7473 473.355 97.7946L473.831 97.9115C474.117 97.981 474.331 98.0875 474.472 98.2308C474.612 98.3727 474.682 98.5557 474.682 98.7797C474.682 98.9633 474.629 99.1275 474.524 99.2722C474.419 99.4169 474.273 99.531 474.085 99.6145C473.898 99.698 473.679 99.7397 473.43 99.7397C473.103 99.7397 472.833 99.6687 472.618 99.5268C472.404 99.3849 472.268 99.1776 472.211 98.9049L472.679 98.788C472.723 98.9605 472.808 99.0899 472.931 99.1762C473.057 99.2625 473.22 99.3056 473.422 99.3056C473.651 99.3056 473.834 99.2569 473.969 99.1595C474.105 99.0607 474.173 98.9425 474.173 98.8047C474.173 98.6934 474.134 98.6002 474.056 98.525C473.978 98.4485 473.859 98.3915 473.697 98.3539L473.163 98.2287C472.869 98.1591 472.654 98.0513 472.516 97.9052C472.38 97.7577 472.311 97.5734 472.311 97.3521C472.311 97.1713 472.362 97.0113 472.464 96.8721C472.567 96.733 472.707 96.6238 472.883 96.5445C473.061 96.4651 473.263 96.4255 473.489 96.4255C473.806 96.4255 474.055 96.4951 474.236 96.6342C474.418 96.7733 474.547 96.957 474.624 97.1852ZM477.143 99.6729V95.3987H478.588C478.922 95.3987 479.196 95.4557 479.41 95.5698C479.624 95.6825 479.783 95.8376 479.886 96.0352C479.989 96.2328 480.04 96.4575 480.04 96.7093C480.04 96.9612 479.989 97.1845 479.886 97.3793C479.783 97.5741 479.625 97.7271 479.412 97.8384C479.199 97.9483 478.927 98.0033 478.596 98.0033H477.427V97.5358H478.579C478.808 97.5358 478.991 97.5024 479.13 97.4356C479.271 97.3688 479.372 97.2742 479.435 97.1518C479.499 97.0279 479.531 96.8805 479.531 96.7093C479.531 96.5382 479.499 96.3886 479.435 96.2606C479.371 96.1326 479.269 96.0338 479.128 95.9643C478.988 95.8933 478.802 95.8578 478.571 95.8578H477.661V99.6729H477.143ZM479.155 97.7528L480.207 99.6729H479.606L478.571 97.7528H479.155ZM482.146 99.7397C481.837 99.7397 481.57 99.6715 481.346 99.5352C481.124 99.3974 480.952 99.2054 480.831 98.9591C480.711 98.7115 480.651 98.4235 480.651 98.0951C480.651 97.7668 480.711 97.4774 480.831 97.2269C480.952 96.9751 481.12 96.7789 481.336 96.6384C481.553 96.4964 481.806 96.4255 482.095 96.4255C482.262 96.4255 482.427 96.4533 482.59 96.509C482.753 96.5646 482.901 96.6551 483.035 96.7803C483.168 96.9041 483.275 97.0683 483.354 97.2728C483.433 97.4774 483.473 97.7292 483.473 98.0283V98.237H481.002V97.8113H482.972C482.972 97.6304 482.936 97.469 482.864 97.3271C482.793 97.1852 482.691 97.0732 482.559 96.9911C482.428 96.909 482.274 96.8679 482.095 96.8679C481.899 96.8679 481.73 96.9166 481.586 97.014C481.444 97.11 481.335 97.2353 481.259 97.3897C481.182 97.5441 481.144 97.7097 481.144 97.8864V98.1702C481.144 98.4123 481.186 98.6176 481.269 98.7859C481.354 98.9529 481.471 99.0802 481.622 99.1679C481.772 99.2541 481.947 99.2972 482.146 99.2972C482.275 99.2972 482.392 99.2792 482.496 99.243C482.602 99.2054 482.693 99.1498 482.77 99.076C482.846 99.0009 482.905 98.9077 482.947 98.7964L483.423 98.9299C483.373 99.0913 483.289 99.2332 483.17 99.3557C483.052 99.4767 482.906 99.5713 482.732 99.6395C482.558 99.7063 482.363 99.7397 482.146 99.7397ZM486.493 97.1852L486.05 97.3104C486.023 97.2366 485.982 97.165 485.927 97.0954C485.874 97.0245 485.802 96.966 485.71 96.9201C485.618 96.8742 485.501 96.8512 485.358 96.8512C485.161 96.8512 484.998 96.8965 484.867 96.9869C484.738 97.0759 484.673 97.1893 484.673 97.3271C484.673 97.4495 484.718 97.5462 484.807 97.6172C484.896 97.6881 485.035 97.7473 485.224 97.7946L485.7 97.9115C485.986 97.981 486.2 98.0875 486.341 98.2308C486.481 98.3727 486.551 98.5557 486.551 98.7797C486.551 98.9633 486.498 99.1275 486.393 99.2722C486.288 99.4169 486.142 99.531 485.954 99.6145C485.767 99.698 485.548 99.7397 485.299 99.7397C484.972 99.7397 484.702 99.6687 484.487 99.5268C484.273 99.3849 484.137 99.1776 484.08 98.9049L484.548 98.788C484.592 98.9605 484.676 99.0899 484.8 99.1762C484.926 99.2625 485.089 99.3056 485.291 99.3056C485.52 99.3056 485.703 99.2569 485.838 99.1595C485.974 99.0607 486.042 98.9425 486.042 98.8047C486.042 98.6934 486.003 98.6002 485.925 98.525C485.847 98.4485 485.728 98.3915 485.566 98.3539L485.032 98.2287C484.738 98.1591 484.523 98.0513 484.385 97.9052C484.249 97.7577 484.18 97.5734 484.18 97.3521C484.18 97.1713 484.231 97.0113 484.333 96.8721C484.436 96.733 484.576 96.6238 484.752 96.5445C484.93 96.4651 485.132 96.4255 485.358 96.4255C485.675 96.4255 485.924 96.4951 486.105 96.6342C486.287 96.7733 486.416 96.957 486.493 97.1852ZM488.637 99.7397C488.328 99.7397 488.061 99.6715 487.837 99.5352C487.615 99.3974 487.443 99.2054 487.322 98.9591C487.202 98.7115 487.142 98.4235 487.142 98.0951C487.142 97.7668 487.202 97.4774 487.322 97.2269C487.443 96.9751 487.611 96.7789 487.827 96.6384C488.044 96.4964 488.297 96.4255 488.587 96.4255C488.754 96.4255 488.919 96.4533 489.081 96.509C489.244 96.5646 489.392 96.6551 489.526 96.7803C489.659 96.9041 489.766 97.0683 489.845 97.2728C489.924 97.4774 489.964 97.7292 489.964 98.0283V98.237H487.493V97.8113H489.463C489.463 97.6304 489.427 97.469 489.355 97.3271C489.284 97.1852 489.182 97.0732 489.05 96.9911C488.919 96.909 488.765 96.8679 488.587 96.8679C488.39 96.8679 488.221 96.9166 488.077 97.014C487.936 97.11 487.826 97.2353 487.75 97.3897C487.673 97.5441 487.635 97.7097 487.635 97.8864V98.1702C487.635 98.4123 487.677 98.6176 487.76 98.7859C487.845 98.9529 487.963 99.0802 488.113 99.1679C488.263 99.2541 488.438 99.2972 488.637 99.2972C488.766 99.2972 488.883 99.2792 488.987 99.243C489.093 99.2054 489.184 99.1498 489.261 99.076C489.337 99.0009 489.396 98.9077 489.438 98.7964L489.914 98.9299C489.864 99.0913 489.78 99.2332 489.662 99.3557C489.543 99.4767 489.397 99.5713 489.223 99.6395C489.049 99.7063 488.854 99.7397 488.637 99.7397ZM490.713 99.6729V96.4672H491.189V96.9514H491.223C491.281 96.7928 491.387 96.6641 491.54 96.5653C491.693 96.4665 491.865 96.4171 492.057 96.4171C492.094 96.4171 492.139 96.4178 492.193 96.4192C492.247 96.4206 492.288 96.4227 492.316 96.4255V96.9264C492.3 96.9222 492.261 96.9159 492.201 96.9076C492.143 96.8979 492.081 96.893 492.016 96.893C491.86 96.893 491.721 96.9257 491.598 96.9911C491.477 97.0551 491.381 97.1441 491.31 97.2582C491.241 97.3709 491.206 97.4996 491.206 97.6443V99.6729H490.713ZM495.619 96.4672L494.434 99.6729H493.933L492.747 96.4672H493.281L494.166 99.0218H494.2L495.085 96.4672H495.619ZM497.498 99.7397C497.189 99.7397 496.923 99.6715 496.699 99.5352C496.476 99.3974 496.305 99.2054 496.184 98.9591C496.064 98.7115 496.004 98.4235 496.004 98.0951C496.004 97.7668 496.064 97.4774 496.184 97.2269C496.305 96.9751 496.473 96.7789 496.689 96.6384C496.906 96.4964 497.159 96.4255 497.448 96.4255C497.615 96.4255 497.78 96.4533 497.943 96.509C498.106 96.5646 498.254 96.6551 498.387 96.7803C498.521 96.9041 498.627 97.0683 498.707 97.2728C498.786 97.4774 498.826 97.7292 498.826 98.0283V98.237H496.355V97.8113H498.325C498.325 97.6304 498.289 97.469 498.216 97.3271C498.145 97.1852 498.044 97.0732 497.912 96.9911C497.781 96.909 497.626 96.8679 497.448 96.8679C497.252 96.8679 497.082 96.9166 496.939 97.014C496.797 97.11 496.688 97.2353 496.611 97.3897C496.535 97.5441 496.497 97.7097 496.497 97.8864V98.1702C496.497 98.4123 496.538 98.6176 496.622 98.7859C496.707 98.9529 496.824 99.0802 496.974 99.1679C497.125 99.2541 497.299 99.2972 497.498 99.2972C497.628 99.2972 497.745 99.2792 497.849 99.243C497.955 99.2054 498.046 99.1498 498.122 99.076C498.199 99.0009 498.258 98.9077 498.3 98.7964L498.776 98.9299C498.726 99.0913 498.641 99.2332 498.523 99.3557C498.405 99.4767 498.259 99.5713 498.085 99.6395C497.911 99.7063 497.715 99.7397 497.498 99.7397ZM500.785 99.7397C500.518 99.7397 500.282 99.6722 500.078 99.5373C499.873 99.4009 499.713 99.2089 499.598 98.9612C499.482 98.7122 499.425 98.4179 499.425 98.0784C499.425 97.7417 499.482 97.4495 499.598 97.2019C499.713 96.9542 499.874 96.7629 500.08 96.6279C500.286 96.493 500.524 96.4255 500.794 96.4255C501.002 96.4255 501.167 96.4603 501.288 96.5298C501.411 96.598 501.504 96.6759 501.568 96.7636C501.633 96.8499 501.684 96.9208 501.72 96.9765H501.762V95.3987H502.255V99.6729H501.779V99.1804H501.72C501.684 99.2388 501.633 99.3126 501.566 99.4016C501.499 99.4893 501.404 99.5679 501.28 99.6374C501.156 99.7056 500.991 99.7397 500.785 99.7397ZM500.852 99.2972C501.05 99.2972 501.217 99.2458 501.353 99.1428C501.489 99.0385 501.593 98.8944 501.664 98.7108C501.735 98.5257 501.77 98.3122 501.77 98.0701C501.77 97.8308 501.736 97.6214 501.666 97.4419C501.597 97.261 501.494 97.1205 501.357 97.0203C501.221 96.9187 501.053 96.8679 500.852 96.8679C500.643 96.8679 500.47 96.9215 500.33 97.0286C500.193 97.1344 500.089 97.2784 500.019 97.4607C499.951 97.6415 499.917 97.8447 499.917 98.0701C499.917 98.2983 499.952 98.5056 500.022 98.692C500.092 98.8771 500.197 99.0245 500.335 99.1345C500.474 99.243 500.646 99.2972 500.852 99.2972Z" fill="#1B1B1B"/>
<defs>
<clipPath id="clip0_2004_112">
<rect width="10.85" height="10.85" fill="white" transform="translate(271.365 58.1375)"/>
</clipPath>
<clipPath id="clip1_2004_112">
<rect width="10.85" height="10.85" fill="white" transform="translate(399.626 57.9118)"/>
</clipPath>
<clipPath id="clip2_2004_112">
<rect width="10.85" height="10.85" fill="white" transform="translate(513.526 57.9118)"/>
</clipPath>
</defs>
</svg>
