<svg width="950" height="54" viewBox="0 0 950 54" fill="none" xmlns="http://www.w3.org/2000/svg">
<g filter="url(#filter0_d_2004_17)">
<rect width="950" height="54" rx="8" fill="white"/>
<path d="M79.5266 31.7281C78.7935 31.7281 78.0971 32.0152 77.5718 32.5345C77.0464 33.0598 76.7532 33.744 76.7532 34.4771C76.7532 35.2101 77.0403 35.8943 77.5718 36.4196C78.1032 36.9389 78.7935 37.226 79.5266 37.226C81.0293 37.226 82.2511 35.992 82.2511 34.4771C82.2511 32.9621 81.0293 31.7281 79.5266 31.7281ZM79.5266 36.0043C78.6836 36.0043 77.975 35.3079 77.975 34.4771C77.975 33.6463 78.6836 32.9499 79.5266 32.9499C80.3574 32.9499 81.0293 33.6341 81.0293 34.4771C81.0293 35.3201 80.3574 36.0043 79.5266 36.0043ZM80.2352 22.5711C80.1252 22.4673 79.9786 22.4123 79.8259 22.4123H76.6921C76.3561 22.4123 76.0812 22.6872 76.0812 23.0232V28.0324C76.0812 28.3683 76.3561 28.6432 76.6921 28.6432H81.6646C82.0006 28.6432 82.2755 28.3683 82.2755 28.0324V24.6787C82.2755 24.5076 82.2022 24.3427 82.0739 24.2266L80.2352 22.5711ZM81.0538 27.4215H77.303V23.628H79.5877L81.0538 24.9474V27.4215ZM64.609 31.7281C63.876 31.7281 63.1796 32.0152 62.6542 32.5345C62.1289 33.0598 61.8357 33.744 61.8357 34.4771C61.8357 35.2101 62.1228 35.8943 62.6542 36.4196C63.1857 36.9389 63.876 37.226 64.609 37.226C66.1118 37.226 67.3335 35.992 67.3335 34.4771C67.3335 32.9621 66.1118 31.7281 64.609 31.7281ZM64.609 36.0043C63.766 36.0043 63.0574 35.3079 63.0574 34.4771C63.0574 33.6463 63.766 32.9499 64.609 32.9499C65.4398 32.9499 66.1118 33.6341 66.1118 34.4771C66.1118 35.3201 65.4398 36.0043 64.609 36.0043ZM60.5345 32.4795H59.3067V30.8546C59.3067 30.5186 59.0318 30.2437 58.6958 30.2437C58.3598 30.2437 58.0849 30.5186 58.0849 30.8546V33.0904C58.0849 33.4264 58.3598 33.7013 58.6958 33.7013H60.5345C60.8705 33.7013 61.1454 33.4264 61.1454 33.0904C61.1454 32.7544 60.8705 32.4795 60.5345 32.4795ZM63.6316 29.1503C63.6316 28.8143 63.3568 28.5394 63.0208 28.5394H55.6109C55.2749 28.5394 55 28.8143 55 29.1503C55 29.4862 55.2749 29.7611 55.6109 29.7611H63.0208C63.3568 29.7611 63.6316 29.4923 63.6316 29.1503ZM56.8509 26.945L64.2608 26.9878C64.5968 26.9878 64.8717 26.719 64.8778 26.383C64.8839 26.0409 64.609 25.766 64.2731 25.766L56.8632 25.7233C56.8571 25.7233 56.8571 25.7233 56.8571 25.7233C56.5211 25.7233 56.2462 25.992 56.2462 26.328C56.2401 26.6701 56.515 26.945 56.8509 26.945ZM58.0971 24.1716H65.507C65.843 24.1716 66.1179 23.8967 66.1179 23.5608C66.1179 23.2248 65.843 22.9499 65.507 22.9499H58.0971C57.7611 22.9499 57.4863 23.2248 57.4863 23.5608C57.4863 23.8967 57.7611 24.1716 58.0971 24.1716ZM84.774 23.347L80.4001 19.7245C80.2902 19.6328 80.1558 19.584 80.0092 19.584H74.8656V17.3848C74.8656 17.0488 74.5907 16.774 74.2547 16.774H58.6958C58.3598 16.774 58.0849 17.0488 58.0849 17.3848V21.8564C58.0849 22.1924 58.3598 22.4673 58.6958 22.4673C59.0318 22.4673 59.3067 22.1924 59.3067 21.8564V17.9957H73.65V32.4795H68.6408C68.3048 32.4795 68.0299 32.7544 68.0299 33.0904C68.0299 33.4264 68.3048 33.7013 68.6408 33.7013H76.0996C76.4356 33.7013 76.7104 33.4264 76.7104 33.0904C76.7104 32.7544 76.4356 32.4795 76.0996 32.4795H74.8717V20.8057H79.7954L83.7783 24.1044L83.7355 32.4673H83.1002C82.7642 32.4673 82.4893 32.7422 82.4893 33.0782C82.4893 33.4141 82.7642 33.689 83.1002 33.689H84.3403C84.6762 33.689 84.9511 33.4203 84.9511 33.0843L85 23.8234C84.9939 23.6402 84.9145 23.463 84.774 23.347Z" fill="#00B307"/>
<path d="M99 22.624V23.98H95.508V26.128H98.184V27.46H95.508V31H93.828V22.624H99ZM101.871 25.384C102.087 25.032 102.367 24.756 102.711 24.556C103.063 24.356 103.463 24.256 103.911 24.256V26.02H103.467C102.939 26.02 102.539 26.144 102.267 26.392C102.003 26.64 101.871 27.072 101.871 27.688V31H100.191V24.352H101.871V25.384ZM111.223 27.532C111.223 27.772 111.207 27.988 111.175 28.18H106.315C106.355 28.66 106.523 29.036 106.819 29.308C107.115 29.58 107.479 29.716 107.911 29.716C108.535 29.716 108.979 29.448 109.243 28.912H111.055C110.863 29.552 110.495 30.08 109.951 30.496C109.407 30.904 108.739 31.108 107.947 31.108C107.307 31.108 106.731 30.968 106.219 30.688C105.715 30.4 105.319 29.996 105.031 29.476C104.751 28.956 104.611 28.356 104.611 27.676C104.611 26.988 104.751 26.384 105.031 25.864C105.311 25.344 105.703 24.944 106.207 24.664C106.711 24.384 107.291 24.244 107.947 24.244C108.579 24.244 109.143 24.38 109.639 24.652C110.143 24.924 110.531 25.312 110.803 25.816C111.083 26.312 111.223 26.884 111.223 27.532ZM109.483 27.052C109.475 26.62 109.319 26.276 109.015 26.02C108.711 25.756 108.339 25.624 107.899 25.624C107.483 25.624 107.131 25.752 106.843 26.008C106.563 26.256 106.391 26.604 106.327 27.052H109.483ZM118.629 27.532C118.629 27.772 118.613 27.988 118.581 28.18H113.721C113.761 28.66 113.929 29.036 114.225 29.308C114.521 29.58 114.885 29.716 115.317 29.716C115.941 29.716 116.385 29.448 116.649 28.912H118.461C118.269 29.552 117.901 30.08 117.357 30.496C116.813 30.904 116.145 31.108 115.353 31.108C114.713 31.108 114.137 30.968 113.625 30.688C113.121 30.4 112.725 29.996 112.437 29.476C112.157 28.956 112.017 28.356 112.017 27.676C112.017 26.988 112.157 26.384 112.437 25.864C112.717 25.344 113.109 24.944 113.613 24.664C114.117 24.384 114.697 24.244 115.353 24.244C115.985 24.244 116.549 24.38 117.045 24.652C117.549 24.924 117.937 25.312 118.209 25.816C118.489 26.312 118.629 26.884 118.629 27.532ZM116.889 27.052C116.881 26.62 116.725 26.276 116.421 26.02C116.117 25.756 115.745 25.624 115.305 25.624C114.889 25.624 114.537 25.752 114.249 26.008C113.969 26.256 113.797 26.604 113.733 27.052H116.889ZM125.607 31.084C125.023 31.084 124.495 30.984 124.023 30.784C123.559 30.584 123.191 30.296 122.919 29.92C122.647 29.544 122.507 29.1 122.499 28.588H124.299C124.323 28.932 124.443 29.204 124.659 29.404C124.883 29.604 125.187 29.704 125.571 29.704C125.963 29.704 126.271 29.612 126.495 29.428C126.719 29.236 126.831 28.988 126.831 28.684C126.831 28.436 126.755 28.232 126.603 28.072C126.451 27.912 126.259 27.788 126.027 27.7C125.803 27.604 125.491 27.5 125.091 27.388C124.547 27.228 124.103 27.072 123.759 26.92C123.423 26.76 123.131 26.524 122.883 26.212C122.643 25.892 122.523 25.468 122.523 24.94C122.523 24.444 122.647 24.012 122.895 23.644C123.143 23.276 123.491 22.996 123.939 22.804C124.387 22.604 124.899 22.504 125.475 22.504C126.339 22.504 127.039 22.716 127.575 23.14C128.119 23.556 128.419 24.14 128.475 24.892H126.627C126.611 24.604 126.487 24.368 126.255 24.184C126.031 23.992 125.731 23.896 125.355 23.896C125.027 23.896 124.763 23.98 124.563 24.148C124.371 24.316 124.275 24.56 124.275 24.88C124.275 25.104 124.347 25.292 124.491 25.444C124.643 25.588 124.827 25.708 125.043 25.804C125.267 25.892 125.579 25.996 125.979 26.116C126.523 26.276 126.967 26.436 127.311 26.596C127.655 26.756 127.951 26.996 128.199 27.316C128.447 27.636 128.571 28.056 128.571 28.576C128.571 29.024 128.455 29.44 128.223 29.824C127.991 30.208 127.651 30.516 127.203 30.748C126.755 30.972 126.223 31.084 125.607 31.084ZM133.771 24.256C134.275 24.256 134.723 24.368 135.115 24.592C135.507 24.808 135.811 25.132 136.027 25.564C136.251 25.988 136.363 26.5 136.363 27.1V31H134.683V27.328C134.683 26.8 134.551 26.396 134.287 26.116C134.023 25.828 133.663 25.684 133.207 25.684C132.743 25.684 132.375 25.828 132.103 26.116C131.839 26.396 131.707 26.8 131.707 27.328V31H130.027V22.12H131.707V25.18C131.923 24.892 132.211 24.668 132.571 24.508C132.931 24.34 133.331 24.256 133.771 24.256ZM138.813 23.56C138.517 23.56 138.269 23.468 138.069 23.284C137.877 23.092 137.781 22.856 137.781 22.576C137.781 22.296 137.877 22.064 138.069 21.88C138.269 21.688 138.517 21.592 138.813 21.592C139.109 21.592 139.353 21.688 139.545 21.88C139.745 22.064 139.845 22.296 139.845 22.576C139.845 22.856 139.745 23.092 139.545 23.284C139.353 23.468 139.109 23.56 138.813 23.56ZM139.641 24.352V31H137.961V24.352H139.641ZM142.981 25.312C143.197 25.008 143.493 24.756 143.869 24.556C144.253 24.348 144.689 24.244 145.177 24.244C145.745 24.244 146.257 24.384 146.713 24.664C147.177 24.944 147.541 25.344 147.805 25.864C148.077 26.376 148.213 26.972 148.213 27.652C148.213 28.332 148.077 28.936 147.805 29.464C147.541 29.984 147.177 30.388 146.713 30.676C146.257 30.964 145.745 31.108 145.177 31.108C144.689 31.108 144.257 31.008 143.881 30.808C143.513 30.608 143.213 30.356 142.981 30.052V34.168H141.301V24.352H142.981V25.312ZM146.497 27.652C146.497 27.252 146.413 26.908 146.245 26.62C146.085 26.324 145.869 26.1 145.597 25.948C145.333 25.796 145.045 25.72 144.733 25.72C144.429 25.72 144.141 25.8 143.869 25.96C143.605 26.112 143.389 26.336 143.221 26.632C143.061 26.928 142.981 27.276 142.981 27.676C142.981 28.076 143.061 28.424 143.221 28.72C143.389 29.016 143.605 29.244 143.869 29.404C144.141 29.556 144.429 29.632 144.733 29.632C145.045 29.632 145.333 29.552 145.597 29.392C145.869 29.232 146.085 29.004 146.245 28.708C146.413 28.412 146.497 28.06 146.497 27.652ZM151.113 25.312C151.329 25.008 151.625 24.756 152.001 24.556C152.385 24.348 152.821 24.244 153.309 24.244C153.877 24.244 154.389 24.384 154.845 24.664C155.309 24.944 155.673 25.344 155.937 25.864C156.209 26.376 156.345 26.972 156.345 27.652C156.345 28.332 156.209 28.936 155.937 29.464C155.673 29.984 155.309 30.388 154.845 30.676C154.389 30.964 153.877 31.108 153.309 31.108C152.821 31.108 152.389 31.008 152.013 30.808C151.645 30.608 151.345 30.356 151.113 30.052V34.168H149.433V24.352H151.113V25.312ZM154.629 27.652C154.629 27.252 154.545 26.908 154.377 26.62C154.217 26.324 154.001 26.1 153.729 25.948C153.465 25.796 153.177 25.72 152.865 25.72C152.561 25.72 152.273 25.8 152.001 25.96C151.737 26.112 151.521 26.336 151.353 26.632C151.193 26.928 151.113 27.276 151.113 27.676C151.113 28.076 151.193 28.424 151.353 28.72C151.521 29.016 151.737 29.244 152.001 29.404C152.273 29.556 152.561 29.632 152.865 29.632C153.177 29.632 153.465 29.552 153.729 29.392C154.001 29.232 154.217 29.004 154.377 28.708C154.545 28.412 154.629 28.06 154.629 27.652ZM158.418 23.56C158.122 23.56 157.874 23.468 157.674 23.284C157.482 23.092 157.386 22.856 157.386 22.576C157.386 22.296 157.482 22.064 157.674 21.88C157.874 21.688 158.122 21.592 158.418 21.592C158.714 21.592 158.958 21.688 159.15 21.88C159.35 22.064 159.45 22.296 159.45 22.576C159.45 22.856 159.35 23.092 159.15 23.284C158.958 23.468 158.714 23.56 158.418 23.56ZM159.246 24.352V31H157.566V24.352H159.246ZM164.59 24.256C165.382 24.256 166.022 24.508 166.51 25.012C166.998 25.508 167.242 26.204 167.242 27.1V31H165.562V27.328C165.562 26.8 165.43 26.396 165.166 26.116C164.902 25.828 164.542 25.684 164.086 25.684C163.622 25.684 163.254 25.828 162.982 26.116C162.718 26.396 162.586 26.8 162.586 27.328V31H160.906V24.352H162.586V25.18C162.81 24.892 163.094 24.668 163.438 24.508C163.79 24.34 164.174 24.256 164.59 24.256ZM171.444 24.244C171.94 24.244 172.376 24.344 172.752 24.544C173.128 24.736 173.424 24.988 173.64 25.3V24.352H175.332V31.048C175.332 31.664 175.208 32.212 174.96 32.692C174.712 33.18 174.34 33.564 173.844 33.844C173.348 34.132 172.748 34.276 172.044 34.276C171.1 34.276 170.324 34.056 169.716 33.616C169.116 33.176 168.776 32.576 168.696 31.816H170.364C170.452 32.12 170.64 32.36 170.928 32.536C171.224 32.72 171.58 32.812 171.996 32.812C172.484 32.812 172.88 32.664 173.184 32.368C173.488 32.08 173.64 31.64 173.64 31.048V30.016C173.424 30.328 173.124 30.588 172.74 30.796C172.364 31.004 171.932 31.108 171.444 31.108C170.884 31.108 170.372 30.964 169.908 30.676C169.444 30.388 169.076 29.984 168.804 29.464C168.54 28.936 168.408 28.332 168.408 27.652C168.408 26.98 168.54 26.384 168.804 25.864C169.076 25.344 169.44 24.944 169.896 24.664C170.36 24.384 170.876 24.244 171.444 24.244ZM173.64 27.676C173.64 27.268 173.56 26.92 173.4 26.632C173.24 26.336 173.024 26.112 172.752 25.96C172.48 25.8 172.188 25.72 171.876 25.72C171.564 25.72 171.276 25.796 171.012 25.948C170.748 26.1 170.532 26.324 170.364 26.62C170.204 26.908 170.124 27.252 170.124 27.652C170.124 28.052 170.204 28.404 170.364 28.708C170.532 29.004 170.748 29.232 171.012 29.392C171.284 29.552 171.572 29.632 171.876 29.632C172.188 29.632 172.48 29.556 172.752 29.404C173.024 29.244 173.24 29.02 173.4 28.732C173.56 28.436 173.64 28.084 173.64 27.676Z" fill="#1A1A1A"/>
<g clip-path="url(#clip0_2004_17)">
<path d="M268.264 23.4076V22.2542C268.264 19.4937 267.287 16.9286 265.516 15.0252C263.701 13.0714 261.205 12 258.482 12H257.531C254.808 12 252.312 13.0714 250.497 15.0252C248.726 16.9286 247.749 19.4937 247.749 22.2542V23.4076C245.6 23.5525 243.892 25.3424 243.892 27.5294V29.3319C243.892 31.6071 245.745 33.4601 248.02 33.4601H250.346C250.762 33.4601 251.102 33.1197 251.102 32.7038V24.1513C251.102 23.7353 250.762 23.395 250.346 23.395H249.262V22.2542C249.262 17.2689 252.816 13.5126 257.524 13.5126H258.476C263.19 13.5126 266.738 17.2689 266.738 22.2542V23.395H265.654C265.238 23.395 264.898 23.7353 264.898 24.1513V32.6975C264.898 33.1134 265.238 33.4538 265.654 33.4538H266.713C266.404 37.3992 263.688 38.313 262.428 38.521C262.081 37.4559 261.079 36.687 259.9 36.687H258.009C256.547 36.687 255.356 37.8782 255.356 39.3403C255.356 40.8025 256.547 42 258.009 42H259.907C261.129 42 262.157 41.1681 262.465 40.0462C263.083 39.958 264.06 39.7374 265.031 39.1702C266.398 38.3697 268.018 36.7374 268.232 33.4475C270.394 33.3151 272.108 31.5189 272.108 29.3256V27.5231C272.115 25.3424 270.413 23.5462 268.264 23.4076ZM249.602 31.9412H248.033C246.589 31.9412 245.417 30.7689 245.417 29.3256V27.5231C245.417 26.0798 246.589 24.9076 248.033 24.9076H249.602V31.9412ZM259.907 40.4874H258.009C257.379 40.4874 256.869 39.9769 256.869 39.3466C256.869 38.7164 257.379 38.2059 258.009 38.2059H259.907C260.537 38.2059 261.047 38.7164 261.047 39.3466C261.047 39.9769 260.537 40.4874 259.907 40.4874ZM270.602 29.3256C270.602 30.7689 269.43 31.9412 267.986 31.9412H266.417V24.9076H267.986C269.43 24.9076 270.602 26.0798 270.602 27.5231V29.3256Z" fill="#00B307"/>
</g>
<path d="M281.42 26.8C281.42 25.976 281.604 25.24 281.972 24.592C282.348 23.936 282.856 23.428 283.496 23.068C284.144 22.7 284.868 22.516 285.668 22.516C286.604 22.516 287.424 22.756 288.128 23.236C288.832 23.716 289.324 24.38 289.604 25.228H287.672C287.48 24.828 287.208 24.528 286.856 24.328C286.512 24.128 286.112 24.028 285.656 24.028C285.168 24.028 284.732 24.144 284.348 24.376C283.972 24.6 283.676 24.92 283.46 25.336C283.252 25.752 283.148 26.24 283.148 26.8C283.148 27.352 283.252 27.84 283.46 28.264C283.676 28.68 283.972 29.004 284.348 29.236C284.732 29.46 285.168 29.572 285.656 29.572C286.112 29.572 286.512 29.472 286.856 29.272C287.208 29.064 287.48 28.76 287.672 28.36H289.604C289.324 29.216 288.832 29.884 288.128 30.364C287.432 30.836 286.612 31.072 285.668 31.072C284.868 31.072 284.144 30.892 283.496 30.532C282.856 30.164 282.348 29.656 281.972 29.008C281.604 28.36 281.42 27.624 281.42 26.8ZM297.315 24.352V31H295.623V30.16C295.407 30.448 295.123 30.676 294.771 30.844C294.427 31.004 294.051 31.084 293.643 31.084C293.123 31.084 292.663 30.976 292.263 30.76C291.863 30.536 291.547 30.212 291.315 29.788C291.091 29.356 290.979 28.844 290.979 28.252V24.352H292.659V28.012C292.659 28.54 292.791 28.948 293.055 29.236C293.319 29.516 293.679 29.656 294.135 29.656C294.599 29.656 294.963 29.516 295.227 29.236C295.491 28.948 295.623 28.54 295.623 28.012V24.352H297.315ZM301.517 31.108C300.973 31.108 300.485 31.012 300.053 30.82C299.621 30.62 299.277 30.352 299.021 30.016C298.773 29.68 298.637 29.308 298.613 28.9H300.305C300.337 29.156 300.461 29.368 300.677 29.536C300.901 29.704 301.177 29.788 301.505 29.788C301.825 29.788 302.073 29.724 302.249 29.596C302.433 29.468 302.525 29.304 302.525 29.104C302.525 28.888 302.413 28.728 302.189 28.624C301.973 28.512 301.625 28.392 301.145 28.264C300.649 28.144 300.241 28.02 299.921 27.892C299.609 27.764 299.337 27.568 299.105 27.304C298.881 27.04 298.769 26.684 298.769 26.236C298.769 25.868 298.873 25.532 299.081 25.228C299.297 24.924 299.601 24.684 299.993 24.508C300.393 24.332 300.861 24.244 301.397 24.244C302.189 24.244 302.821 24.444 303.293 24.844C303.765 25.236 304.025 25.768 304.073 26.44H302.465C302.441 26.176 302.329 25.968 302.129 25.816C301.937 25.656 301.677 25.576 301.349 25.576C301.045 25.576 300.809 25.632 300.641 25.744C300.481 25.856 300.401 26.012 300.401 26.212C300.401 26.436 300.513 26.608 300.737 26.728C300.961 26.84 301.309 26.956 301.781 27.076C302.261 27.196 302.657 27.32 302.969 27.448C303.281 27.576 303.549 27.776 303.773 28.048C304.005 28.312 304.125 28.664 304.133 29.104C304.133 29.488 304.025 29.832 303.809 30.136C303.601 30.44 303.297 30.68 302.897 30.856C302.505 31.024 302.045 31.108 301.517 31.108ZM307.468 25.732V28.948C307.468 29.172 307.52 29.336 307.624 29.44C307.736 29.536 307.92 29.584 308.176 29.584H308.956V31H307.9C306.484 31 305.776 30.312 305.776 28.936V25.732H304.984V24.352H305.776V22.708H307.468V24.352H308.956V25.732H307.468ZM313.116 31.108C312.476 31.108 311.9 30.968 311.388 30.688C310.876 30.4 310.472 29.996 310.176 29.476C309.888 28.956 309.744 28.356 309.744 27.676C309.744 26.996 309.892 26.396 310.188 25.876C310.492 25.356 310.904 24.956 311.424 24.676C311.944 24.388 312.524 24.244 313.164 24.244C313.804 24.244 314.384 24.388 314.904 24.676C315.424 24.956 315.832 25.356 316.128 25.876C316.432 26.396 316.584 26.996 316.584 27.676C316.584 28.356 316.428 28.956 316.116 29.476C315.812 29.996 315.396 30.4 314.868 30.688C314.348 30.968 313.764 31.108 313.116 31.108ZM313.116 29.644C313.42 29.644 313.704 29.572 313.968 29.428C314.24 29.276 314.456 29.052 314.616 28.756C314.776 28.46 314.856 28.1 314.856 27.676C314.856 27.044 314.688 26.56 314.352 26.224C314.024 25.88 313.62 25.708 313.14 25.708C312.66 25.708 312.256 25.88 311.928 26.224C311.608 26.56 311.448 27.044 311.448 27.676C311.448 28.308 311.604 28.796 311.916 29.14C312.236 29.476 312.636 29.644 313.116 29.644ZM326.072 24.256C326.888 24.256 327.544 24.508 328.04 25.012C328.544 25.508 328.796 26.204 328.796 27.1V31H327.116V27.328C327.116 26.808 326.984 26.412 326.72 26.14C326.456 25.86 326.096 25.72 325.64 25.72C325.184 25.72 324.82 25.86 324.548 26.14C324.284 26.412 324.152 26.808 324.152 27.328V31H322.472V27.328C322.472 26.808 322.34 26.412 322.076 26.14C321.812 25.86 321.452 25.72 320.996 25.72C320.532 25.72 320.164 25.86 319.892 26.14C319.628 26.412 319.496 26.808 319.496 27.328V31H317.816V24.352H319.496V25.156C319.712 24.876 319.988 24.656 320.324 24.496C320.668 24.336 321.044 24.256 321.452 24.256C321.972 24.256 322.436 24.368 322.844 24.592C323.252 24.808 323.568 25.12 323.792 25.528C324.008 25.144 324.32 24.836 324.728 24.604C325.144 24.372 325.592 24.256 326.072 24.256ZM336.571 27.532C336.571 27.772 336.555 27.988 336.523 28.18H331.663C331.703 28.66 331.871 29.036 332.167 29.308C332.463 29.58 332.827 29.716 333.259 29.716C333.883 29.716 334.327 29.448 334.591 28.912H336.403C336.211 29.552 335.843 30.08 335.299 30.496C334.755 30.904 334.087 31.108 333.295 31.108C332.655 31.108 332.079 30.968 331.567 30.688C331.063 30.4 330.667 29.996 330.379 29.476C330.099 28.956 329.958 28.356 329.958 27.676C329.958 26.988 330.099 26.384 330.379 25.864C330.659 25.344 331.051 24.944 331.555 24.664C332.059 24.384 332.639 24.244 333.295 24.244C333.927 24.244 334.491 24.38 334.987 24.652C335.491 24.924 335.879 25.312 336.151 25.816C336.431 26.312 336.571 26.884 336.571 27.532ZM334.831 27.052C334.823 26.62 334.667 26.276 334.363 26.02C334.059 25.756 333.687 25.624 333.247 25.624C332.831 25.624 332.479 25.752 332.191 26.008C331.911 26.256 331.739 26.604 331.675 27.052H334.831ZM339.477 25.384C339.693 25.032 339.973 24.756 340.317 24.556C340.669 24.356 341.069 24.256 341.517 24.256V26.02H341.073C340.545 26.02 340.145 26.144 339.873 26.392C339.609 26.64 339.477 27.072 339.477 27.688V31H337.797V24.352H339.477V25.384ZM348.4 31.084C347.816 31.084 347.288 30.984 346.816 30.784C346.352 30.584 345.984 30.296 345.712 29.92C345.44 29.544 345.3 29.1 345.292 28.588H347.092C347.116 28.932 347.236 29.204 347.452 29.404C347.676 29.604 347.98 29.704 348.364 29.704C348.756 29.704 349.064 29.612 349.288 29.428C349.512 29.236 349.624 28.988 349.624 28.684C349.624 28.436 349.548 28.232 349.396 28.072C349.244 27.912 349.052 27.788 348.82 27.7C348.596 27.604 348.284 27.5 347.884 27.388C347.34 27.228 346.896 27.072 346.552 26.92C346.216 26.76 345.924 26.524 345.676 26.212C345.436 25.892 345.316 25.468 345.316 24.94C345.316 24.444 345.44 24.012 345.688 23.644C345.936 23.276 346.284 22.996 346.732 22.804C347.18 22.604 347.692 22.504 348.268 22.504C349.132 22.504 349.832 22.716 350.368 23.14C350.912 23.556 351.212 24.14 351.268 24.892H349.42C349.404 24.604 349.28 24.368 349.048 24.184C348.824 23.992 348.524 23.896 348.148 23.896C347.82 23.896 347.556 23.98 347.356 24.148C347.164 24.316 347.068 24.56 347.068 24.88C347.068 25.104 347.14 25.292 347.284 25.444C347.436 25.588 347.62 25.708 347.836 25.804C348.06 25.892 348.372 25.996 348.772 26.116C349.316 26.276 349.76 26.436 350.104 26.596C350.448 26.756 350.744 26.996 350.992 27.316C351.24 27.636 351.364 28.056 351.364 28.576C351.364 29.024 351.248 29.44 351.016 29.824C350.784 30.208 350.444 30.516 349.996 30.748C349.548 30.972 349.016 31.084 348.4 31.084ZM359.096 24.352V31H357.404V30.16C357.188 30.448 356.904 30.676 356.552 30.844C356.208 31.004 355.832 31.084 355.424 31.084C354.904 31.084 354.444 30.976 354.044 30.76C353.644 30.536 353.328 30.212 353.096 29.788C352.872 29.356 352.76 28.844 352.76 28.252V24.352H354.44V28.012C354.44 28.54 354.572 28.948 354.836 29.236C355.1 29.516 355.46 29.656 355.916 29.656C356.38 29.656 356.744 29.516 357.008 29.236C357.272 28.948 357.404 28.54 357.404 28.012V24.352H359.096ZM362.434 25.312C362.65 25.008 362.946 24.756 363.322 24.556C363.706 24.348 364.142 24.244 364.63 24.244C365.198 24.244 365.71 24.384 366.166 24.664C366.63 24.944 366.994 25.344 367.258 25.864C367.53 26.376 367.666 26.972 367.666 27.652C367.666 28.332 367.53 28.936 367.258 29.464C366.994 29.984 366.63 30.388 366.166 30.676C365.71 30.964 365.198 31.108 364.63 31.108C364.142 31.108 363.71 31.008 363.334 30.808C362.966 30.608 362.666 30.356 362.434 30.052V34.168H360.754V24.352H362.434V25.312ZM365.95 27.652C365.95 27.252 365.866 26.908 365.698 26.62C365.538 26.324 365.322 26.1 365.05 25.948C364.786 25.796 364.498 25.72 364.186 25.72C363.882 25.72 363.594 25.8 363.322 25.96C363.058 26.112 362.842 26.336 362.674 26.632C362.514 26.928 362.434 27.276 362.434 27.676C362.434 28.076 362.514 28.424 362.674 28.72C362.842 29.016 363.058 29.244 363.322 29.404C363.594 29.556 363.882 29.632 364.186 29.632C364.498 29.632 364.786 29.552 365.05 29.392C365.322 29.232 365.538 29.004 365.698 28.708C365.866 28.412 365.95 28.06 365.95 27.652ZM370.567 25.312C370.783 25.008 371.079 24.756 371.455 24.556C371.839 24.348 372.275 24.244 372.763 24.244C373.331 24.244 373.843 24.384 374.299 24.664C374.763 24.944 375.127 25.344 375.391 25.864C375.663 26.376 375.799 26.972 375.799 27.652C375.799 28.332 375.663 28.936 375.391 29.464C375.127 29.984 374.763 30.388 374.299 30.676C373.843 30.964 373.331 31.108 372.763 31.108C372.275 31.108 371.843 31.008 371.467 30.808C371.099 30.608 370.799 30.356 370.567 30.052V34.168H368.887V24.352H370.567V25.312ZM374.083 27.652C374.083 27.252 373.999 26.908 373.831 26.62C373.671 26.324 373.455 26.1 373.183 25.948C372.919 25.796 372.631 25.72 372.319 25.72C372.015 25.72 371.727 25.8 371.455 25.96C371.191 26.112 370.975 26.336 370.807 26.632C370.647 26.928 370.567 27.276 370.567 27.676C370.567 28.076 370.647 28.424 370.807 28.72C370.975 29.016 371.191 29.244 371.455 29.404C371.727 29.556 372.015 29.632 372.319 29.632C372.631 29.632 372.919 29.552 373.183 29.392C373.455 29.232 373.671 29.004 373.831 28.708C373.999 28.412 374.083 28.06 374.083 27.652ZM379.971 31.108C379.331 31.108 378.755 30.968 378.243 30.688C377.731 30.4 377.327 29.996 377.031 29.476C376.743 28.956 376.599 28.356 376.599 27.676C376.599 26.996 376.747 26.396 377.043 25.876C377.347 25.356 377.759 24.956 378.279 24.676C378.799 24.388 379.379 24.244 380.019 24.244C380.659 24.244 381.239 24.388 381.759 24.676C382.279 24.956 382.687 25.356 382.983 25.876C383.287 26.396 383.439 26.996 383.439 27.676C383.439 28.356 383.283 28.956 382.971 29.476C382.667 29.996 382.251 30.4 381.723 30.688C381.203 30.968 380.619 31.108 379.971 31.108ZM379.971 29.644C380.275 29.644 380.559 29.572 380.823 29.428C381.095 29.276 381.311 29.052 381.471 28.756C381.631 28.46 381.711 28.1 381.711 27.676C381.711 27.044 381.543 26.56 381.207 26.224C380.879 25.88 380.475 25.708 379.995 25.708C379.515 25.708 379.111 25.88 378.783 26.224C378.463 26.56 378.303 27.044 378.303 27.676C378.303 28.308 378.459 28.796 378.771 29.14C379.091 29.476 379.491 29.644 379.971 29.644ZM386.352 25.384C386.568 25.032 386.848 24.756 387.192 24.556C387.544 24.356 387.944 24.256 388.392 24.256V26.02H387.948C387.42 26.02 387.02 26.144 386.748 26.392C386.484 26.64 386.352 27.072 386.352 27.688V31H384.672V24.352H386.352V25.384ZM391.479 25.732V28.948C391.479 29.172 391.531 29.336 391.635 29.44C391.747 29.536 391.931 29.584 392.187 29.584H392.967V31H391.911C390.495 31 389.787 30.312 389.787 28.936V25.732H388.995V24.352H389.787V22.708H391.479V24.352H392.967V25.732H391.479ZM397.371 29.104C398.139 28.464 398.751 27.932 399.207 27.508C399.663 27.076 400.043 26.628 400.347 26.164C400.651 25.7 400.803 25.244 400.803 24.796C400.803 24.388 400.707 24.068 400.515 23.836C400.323 23.604 400.027 23.488 399.627 23.488C399.227 23.488 398.919 23.624 398.703 23.896C398.487 24.16 398.375 24.524 398.367 24.988H396.735C396.767 24.028 397.051 23.3 397.587 22.804C398.131 22.308 398.819 22.06 399.651 22.06C400.563 22.06 401.263 22.304 401.751 22.792C402.239 23.272 402.483 23.908 402.483 24.7C402.483 25.324 402.315 25.92 401.979 26.488C401.643 27.056 401.259 27.552 400.827 27.976C400.395 28.392 399.831 28.896 399.135 29.488H402.675V30.88H396.747V29.632L397.371 29.104ZM403.662 29.296V27.976L407.586 22.36H409.542V27.832H410.598V29.296H409.542V31H407.862V29.296H403.662ZM407.97 24.16L405.51 27.832H407.97V24.16ZM416.359 19.636L413.119 33.172H411.475L414.715 19.636H416.359ZM423.071 23.524L419.879 31H418.175L421.391 23.716H417.287V22.276H423.071V23.524Z" fill="#1A1A1A"/>
<g clip-path="url(#clip1_2004_17)">
<path d="M459.485 38.0008L457.759 18.5452C457.728 18.1602 457.405 17.8684 457.014 17.8684H453.375C453.368 14.633 450.735 12 447.5 12C444.265 12 441.632 14.633 441.625 17.8684H437.986C437.601 17.8684 437.279 18.1602 437.241 18.5452L435.515 38.0008C435.515 38.0257 435.515 38.0443 435.515 38.0691C435.515 40.2364 437.508 42 439.955 42H455.045C457.492 42 459.485 40.2364 459.485 38.0691C459.485 38.0443 459.485 38.0257 459.485 38.0008ZM447.5 13.4904C449.916 13.4904 451.878 15.4527 451.884 17.8684H443.116C443.122 15.4527 445.084 13.4904 447.5 13.4904ZM455.045 40.5034H439.955C438.34 40.5034 437.024 39.4291 437.005 38.094L438.67 19.3587H441.625V21.9731C441.625 22.3829 441.961 22.7183 442.371 22.7183C442.78 22.7183 443.116 22.3829 443.116 21.9731V19.3587H451.884V21.9731C451.884 22.3829 452.22 22.7183 452.629 22.7183C453.039 22.7183 453.375 22.3829 453.375 21.9731V19.3587H456.33L457.995 38.1002C457.976 39.4291 456.66 40.5034 455.045 40.5034Z" fill="#00B307"/>
<path d="M450.599 27.5123L446.202 31.9089L444.407 30.1143C444.116 29.8224 443.644 29.8224 443.352 30.1143C443.06 30.4062 443.06 30.8781 443.352 31.17L445.674 33.4925C445.817 33.6353 446.01 33.7098 446.202 33.7098C446.395 33.7098 446.581 33.6353 446.73 33.4925L451.654 28.568C451.946 28.2762 451.946 27.8042 451.654 27.5123C451.362 27.2267 450.891 27.2267 450.599 27.5123Z" fill="#00B307"/>
</g>
<path d="M470.932 23.8V22.252H473.824V31H472.096V23.8H470.932ZM475.484 26.512C475.484 25.128 475.732 24.044 476.228 23.26C476.732 22.476 477.564 22.084 478.724 22.084C479.884 22.084 480.712 22.476 481.208 23.26C481.712 24.044 481.964 25.128 481.964 26.512C481.964 27.904 481.712 28.996 481.208 29.788C480.712 30.58 479.884 30.976 478.724 30.976C477.564 30.976 476.732 30.58 476.228 29.788C475.732 28.996 475.484 27.904 475.484 26.512ZM480.308 26.512C480.308 25.92 480.268 25.424 480.188 25.024C480.116 24.616 479.964 24.284 479.732 24.028C479.508 23.772 479.172 23.644 478.724 23.644C478.276 23.644 477.936 23.772 477.704 24.028C477.48 24.284 477.328 24.616 477.248 25.024C477.176 25.424 477.14 25.92 477.14 26.512C477.14 27.12 477.176 27.632 477.248 28.048C477.32 28.456 477.472 28.788 477.704 29.044C477.936 29.292 478.276 29.416 478.724 29.416C479.172 29.416 479.512 29.292 479.744 29.044C479.976 28.788 480.128 28.456 480.2 28.048C480.272 27.632 480.308 27.12 480.308 26.512ZM483.241 26.512C483.241 25.128 483.489 24.044 483.985 23.26C484.489 22.476 485.321 22.084 486.481 22.084C487.641 22.084 488.469 22.476 488.965 23.26C489.469 24.044 489.721 25.128 489.721 26.512C489.721 27.904 489.469 28.996 488.965 29.788C488.469 30.58 487.641 30.976 486.481 30.976C485.321 30.976 484.489 30.58 483.985 29.788C483.489 28.996 483.241 27.904 483.241 26.512ZM488.065 26.512C488.065 25.92 488.025 25.424 487.945 25.024C487.873 24.616 487.721 24.284 487.489 24.028C487.265 23.772 486.929 23.644 486.481 23.644C486.033 23.644 485.693 23.772 485.461 24.028C485.237 24.284 485.085 24.616 485.005 25.024C484.933 25.424 484.897 25.92 484.897 26.512C484.897 27.12 484.933 27.632 485.005 28.048C485.077 28.456 485.229 28.788 485.461 29.044C485.693 29.292 486.033 29.416 486.481 29.416C486.929 29.416 487.269 29.292 487.501 29.044C487.733 28.788 487.885 28.456 487.957 28.048C488.029 27.632 488.065 27.12 488.065 26.512ZM490.807 24.4C490.807 23.792 490.983 23.316 491.335 22.972C491.695 22.628 492.155 22.456 492.715 22.456C493.275 22.456 493.731 22.628 494.083 22.972C494.443 23.316 494.623 23.792 494.623 24.4C494.623 25.016 494.443 25.496 494.083 25.84C493.731 26.184 493.275 26.356 492.715 26.356C492.155 26.356 491.695 26.184 491.335 25.84C490.983 25.496 490.807 25.016 490.807 24.4ZM498.511 22.6L493.795 31H492.163L496.867 22.6H498.511ZM492.703 23.464C492.263 23.464 492.043 23.776 492.043 24.4C492.043 25.032 492.263 25.348 492.703 25.348C492.919 25.348 493.087 25.272 493.207 25.12C493.327 24.96 493.387 24.72 493.387 24.4C493.387 23.776 493.159 23.464 492.703 23.464ZM496.075 29.188C496.075 28.572 496.251 28.096 496.603 27.76C496.963 27.416 497.423 27.244 497.983 27.244C498.543 27.244 498.995 27.416 499.339 27.76C499.691 28.096 499.867 28.572 499.867 29.188C499.867 29.804 499.691 30.284 499.339 30.628C498.995 30.972 498.543 31.144 497.983 31.144C497.415 31.144 496.955 30.972 496.603 30.628C496.251 30.284 496.075 29.804 496.075 29.188ZM497.971 28.252C497.515 28.252 497.287 28.564 497.287 29.188C497.287 29.82 497.515 30.136 497.971 30.136C498.419 30.136 498.643 29.82 498.643 29.188C498.643 28.564 498.419 28.252 497.971 28.252ZM506.892 31.084C506.308 31.084 505.78 30.984 505.308 30.784C504.844 30.584 504.476 30.296 504.204 29.92C503.932 29.544 503.792 29.1 503.784 28.588H505.584C505.608 28.932 505.728 29.204 505.944 29.404C506.168 29.604 506.472 29.704 506.856 29.704C507.248 29.704 507.556 29.612 507.78 29.428C508.004 29.236 508.116 28.988 508.116 28.684C508.116 28.436 508.04 28.232 507.888 28.072C507.736 27.912 507.544 27.788 507.312 27.7C507.088 27.604 506.776 27.5 506.376 27.388C505.832 27.228 505.388 27.072 505.044 26.92C504.708 26.76 504.416 26.524 504.168 26.212C503.928 25.892 503.808 25.468 503.808 24.94C503.808 24.444 503.932 24.012 504.18 23.644C504.428 23.276 504.776 22.996 505.224 22.804C505.672 22.604 506.184 22.504 506.76 22.504C507.624 22.504 508.324 22.716 508.86 23.14C509.404 23.556 509.704 24.14 509.76 24.892H507.912C507.896 24.604 507.772 24.368 507.54 24.184C507.316 23.992 507.016 23.896 506.64 23.896C506.312 23.896 506.048 23.98 505.848 24.148C505.656 24.316 505.56 24.56 505.56 24.88C505.56 25.104 505.632 25.292 505.776 25.444C505.928 25.588 506.112 25.708 506.328 25.804C506.552 25.892 506.864 25.996 507.264 26.116C507.808 26.276 508.252 26.436 508.596 26.596C508.94 26.756 509.236 26.996 509.484 27.316C509.732 27.636 509.856 28.056 509.856 28.576C509.856 29.024 509.74 29.44 509.508 29.824C509.276 30.208 508.936 30.516 508.488 30.748C508.04 30.972 507.508 31.084 506.892 31.084ZM517.492 27.532C517.492 27.772 517.476 27.988 517.444 28.18H512.584C512.624 28.66 512.792 29.036 513.088 29.308C513.384 29.58 513.748 29.716 514.18 29.716C514.804 29.716 515.248 29.448 515.512 28.912H517.324C517.132 29.552 516.764 30.08 516.22 30.496C515.676 30.904 515.008 31.108 514.216 31.108C513.576 31.108 513 30.968 512.488 30.688C511.984 30.4 511.588 29.996 511.3 29.476C511.02 28.956 510.88 28.356 510.88 27.676C510.88 26.988 511.02 26.384 511.3 25.864C511.58 25.344 511.972 24.944 512.476 24.664C512.98 24.384 513.56 24.244 514.216 24.244C514.848 24.244 515.412 24.38 515.908 24.652C516.412 24.924 516.8 25.312 517.072 25.816C517.352 26.312 517.492 26.884 517.492 27.532ZM515.752 27.052C515.744 26.62 515.588 26.276 515.284 26.02C514.98 25.756 514.608 25.624 514.168 25.624C513.752 25.624 513.4 25.752 513.112 26.008C512.832 26.256 512.66 26.604 512.596 27.052H515.752ZM518.287 27.676C518.287 26.988 518.427 26.388 518.707 25.876C518.987 25.356 519.375 24.956 519.871 24.676C520.367 24.388 520.935 24.244 521.575 24.244C522.399 24.244 523.079 24.452 523.615 24.868C524.159 25.276 524.523 25.852 524.707 26.596H522.895C522.799 26.308 522.635 26.084 522.403 25.924C522.179 25.756 521.899 25.672 521.563 25.672C521.083 25.672 520.703 25.848 520.423 26.2C520.143 26.544 520.003 27.036 520.003 27.676C520.003 28.308 520.143 28.8 520.423 29.152C520.703 29.496 521.083 29.668 521.563 29.668C522.243 29.668 522.687 29.364 522.895 28.756H524.707C524.523 29.476 524.159 30.048 523.615 30.472C523.071 30.896 522.391 31.108 521.575 31.108C520.935 31.108 520.367 30.968 519.871 30.688C519.375 30.4 518.987 30 518.707 29.488C518.427 28.968 518.287 28.364 518.287 27.676ZM532.213 24.352V31H530.521V30.16C530.305 30.448 530.021 30.676 529.669 30.844C529.325 31.004 528.949 31.084 528.541 31.084C528.021 31.084 527.561 30.976 527.161 30.76C526.761 30.536 526.445 30.212 526.213 29.788C525.989 29.356 525.877 28.844 525.877 28.252V24.352H527.557V28.012C527.557 28.54 527.689 28.948 527.953 29.236C528.217 29.516 528.577 29.656 529.033 29.656C529.497 29.656 529.861 29.516 530.125 29.236C530.389 28.948 530.521 28.54 530.521 28.012V24.352H532.213ZM535.551 25.384C535.767 25.032 536.047 24.756 536.391 24.556C536.743 24.356 537.143 24.256 537.591 24.256V26.02H537.147C536.619 26.02 536.219 26.144 535.947 26.392C535.683 26.64 535.551 27.072 535.551 27.688V31H533.871V24.352H535.551V25.384ZM544.903 27.532C544.903 27.772 544.887 27.988 544.855 28.18H539.995C540.035 28.66 540.203 29.036 540.499 29.308C540.795 29.58 541.159 29.716 541.591 29.716C542.215 29.716 542.659 29.448 542.923 28.912H544.735C544.543 29.552 544.175 30.08 543.631 30.496C543.087 30.904 542.419 31.108 541.627 31.108C540.987 31.108 540.411 30.968 539.899 30.688C539.395 30.4 538.999 29.996 538.711 29.476C538.431 28.956 538.291 28.356 538.291 27.676C538.291 26.988 538.431 26.384 538.711 25.864C538.991 25.344 539.383 24.944 539.887 24.664C540.391 24.384 540.971 24.244 541.627 24.244C542.259 24.244 542.823 24.38 543.319 24.652C543.823 24.924 544.211 25.312 544.483 25.816C544.763 26.312 544.903 26.884 544.903 27.532ZM543.163 27.052C543.155 26.62 542.999 26.276 542.695 26.02C542.391 25.756 542.019 25.624 541.579 25.624C541.163 25.624 540.811 25.752 540.523 26.008C540.243 26.256 540.071 26.604 540.007 27.052H543.163ZM555.096 25.216C555.096 25.664 554.988 26.084 554.772 26.476C554.564 26.868 554.232 27.184 553.776 27.424C553.328 27.664 552.76 27.784 552.072 27.784H550.668V31H548.988V22.624H552.072C552.72 22.624 553.272 22.736 553.728 22.96C554.184 23.184 554.524 23.492 554.748 23.884C554.98 24.276 555.096 24.72 555.096 25.216ZM552 26.428C552.464 26.428 552.808 26.324 553.032 26.116C553.256 25.9 553.368 25.6 553.368 25.216C553.368 24.4 552.912 23.992 552 23.992H550.668V26.428H552ZM555.857 27.652C555.857 26.98 555.989 26.384 556.253 25.864C556.525 25.344 556.889 24.944 557.345 24.664C557.809 24.384 558.325 24.244 558.893 24.244C559.389 24.244 559.821 24.344 560.189 24.544C560.565 24.744 560.865 24.996 561.089 25.3V24.352H562.781V31H561.089V30.028C560.873 30.34 560.573 30.6 560.189 30.808C559.813 31.008 559.377 31.108 558.881 31.108C558.321 31.108 557.809 30.964 557.345 30.676C556.889 30.388 556.525 29.984 556.253 29.464C555.989 28.936 555.857 28.332 555.857 27.652ZM561.089 27.676C561.089 27.268 561.009 26.92 560.849 26.632C560.689 26.336 560.473 26.112 560.201 25.96C559.929 25.8 559.637 25.72 559.325 25.72C559.013 25.72 558.725 25.796 558.461 25.948C558.197 26.1 557.981 26.324 557.813 26.62C557.653 26.908 557.573 27.252 557.573 27.652C557.573 28.052 557.653 28.404 557.813 28.708C557.981 29.004 558.197 29.232 558.461 29.392C558.733 29.552 559.021 29.632 559.325 29.632C559.637 29.632 559.929 29.556 560.201 29.404C560.473 29.244 560.689 29.02 560.849 28.732C561.009 28.436 561.089 28.084 561.089 27.676ZM570.782 24.352L566.666 34.144H564.878L566.318 30.832L563.654 24.352H565.538L567.254 28.996L568.994 24.352H570.782ZM579.943 24.256C580.759 24.256 581.415 24.508 581.911 25.012C582.415 25.508 582.667 26.204 582.667 27.1V31H580.987V27.328C580.987 26.808 580.855 26.412 580.591 26.14C580.327 25.86 579.967 25.72 579.511 25.72C579.055 25.72 578.691 25.86 578.419 26.14C578.155 26.412 578.023 26.808 578.023 27.328V31H576.343V27.328C576.343 26.808 576.211 26.412 575.947 26.14C575.683 25.86 575.323 25.72 574.867 25.72C574.403 25.72 574.035 25.86 573.763 26.14C573.499 26.412 573.367 26.808 573.367 27.328V31H571.687V24.352H573.367V25.156C573.583 24.876 573.859 24.656 574.195 24.496C574.539 24.336 574.915 24.256 575.323 24.256C575.843 24.256 576.307 24.368 576.715 24.592C577.123 24.808 577.439 25.12 577.663 25.528C577.879 25.144 578.191 24.836 578.599 24.604C579.015 24.372 579.463 24.256 579.943 24.256ZM590.442 27.532C590.442 27.772 590.426 27.988 590.394 28.18H585.534C585.574 28.66 585.742 29.036 586.038 29.308C586.334 29.58 586.698 29.716 587.13 29.716C587.754 29.716 588.198 29.448 588.462 28.912H590.274C590.082 29.552 589.714 30.08 589.17 30.496C588.626 30.904 587.958 31.108 587.166 31.108C586.526 31.108 585.95 30.968 585.438 30.688C584.934 30.4 584.538 29.996 584.25 29.476C583.97 28.956 583.83 28.356 583.83 27.676C583.83 26.988 583.97 26.384 584.25 25.864C584.53 25.344 584.922 24.944 585.426 24.664C585.93 24.384 586.51 24.244 587.166 24.244C587.798 24.244 588.362 24.38 588.858 24.652C589.362 24.924 589.75 25.312 590.022 25.816C590.302 26.312 590.442 26.884 590.442 27.532ZM588.702 27.052C588.694 26.62 588.538 26.276 588.234 26.02C587.93 25.756 587.558 25.624 587.118 25.624C586.702 25.624 586.35 25.752 586.062 26.008C585.782 26.256 585.61 26.604 585.546 27.052H588.702ZM595.352 24.256C596.144 24.256 596.784 24.508 597.272 25.012C597.76 25.508 598.004 26.204 598.004 27.1V31H596.324V27.328C596.324 26.8 596.192 26.396 595.928 26.116C595.664 25.828 595.304 25.684 594.848 25.684C594.384 25.684 594.016 25.828 593.744 26.116C593.48 26.396 593.348 26.8 593.348 27.328V31H591.668V24.352H593.348V25.18C593.572 24.892 593.856 24.668 594.2 24.508C594.552 24.34 594.936 24.256 595.352 24.256ZM601.557 25.732V28.948C601.557 29.172 601.609 29.336 601.713 29.44C601.825 29.536 602.009 29.584 602.265 29.584H603.045V31H601.989C600.573 31 599.865 30.312 599.865 28.936V25.732H599.073V24.352H599.865V22.708H601.557V24.352H603.045V25.732H601.557Z" fill="#1A1A1A"/>
<g clip-path="url(#clip2_2004_17)">
<path d="M650.797 19.0726C650.797 18.9586 650.772 18.8447 650.721 18.737C650.62 18.5217 650.423 18.3761 650.208 18.3318L637.31 12.076C637.101 11.9747 636.854 11.9747 636.645 12.076L623.621 18.3888C623.368 18.5091 623.203 18.7623 623.19 19.0473V19.0536C623.19 19.0599 623.19 19.0663 623.19 19.0789V34.9211C623.19 35.2123 623.355 35.4783 623.621 35.6049L636.645 41.9177C636.652 41.9177 636.652 41.9177 636.658 41.924C636.677 41.9304 636.696 41.9367 636.715 41.9493C636.721 41.9493 636.728 41.9557 636.74 41.9557C636.759 41.962 636.778 41.9683 636.797 41.9747C636.804 41.9747 636.81 41.981 636.816 41.981C636.835 41.9873 636.861 41.9873 636.88 41.9937C636.886 41.9937 636.892 41.9937 636.899 41.9937C636.924 41.9937 636.956 42 636.981 42C637.006 42 637.038 42 637.063 41.9937C637.07 41.9937 637.076 41.9937 637.082 41.9937C637.101 41.9937 637.127 41.9873 637.146 41.981C637.152 41.981 637.158 41.9747 637.165 41.9747C637.184 41.9683 637.203 41.962 637.222 41.9557C637.228 41.9557 637.234 41.9493 637.247 41.9493C637.266 41.943 637.285 41.9367 637.304 41.924C637.31 41.924 637.31 41.924 637.317 41.9177L650.379 35.5859C650.639 35.4593 650.81 35.1933 650.81 34.9021V19.0916C650.797 19.0853 650.797 19.0789 650.797 19.0726ZM636.975 13.6019L648.271 19.0789L644.111 21.0988L632.815 15.6218L636.975 13.6019ZM636.975 24.5559L625.679 19.0789L631.073 16.4639L642.369 21.9409L636.975 24.5559ZM624.71 20.301L636.215 25.8793V40.0182L624.71 34.4398V20.301ZM637.734 40.0182V25.8793L643.135 23.2579V26.9557C643.135 27.3736 643.477 27.7155 643.895 27.7155C644.313 27.7155 644.655 27.3736 644.655 26.9557V22.5171L649.277 20.2756V34.4145L637.734 40.0182Z" fill="#00B307"/>
</g>
<path d="M669.96 22.624V31H668.28V25.552L666.036 31H664.764L662.508 25.552V31H660.828V22.624H662.736L665.4 28.852L668.064 22.624H669.96ZM674.573 31.108C673.933 31.108 673.357 30.968 672.845 30.688C672.333 30.4 671.929 29.996 671.633 29.476C671.345 28.956 671.201 28.356 671.201 27.676C671.201 26.996 671.349 26.396 671.645 25.876C671.949 25.356 672.361 24.956 672.881 24.676C673.401 24.388 673.981 24.244 674.621 24.244C675.261 24.244 675.841 24.388 676.361 24.676C676.881 24.956 677.289 25.356 677.585 25.876C677.889 26.396 678.041 26.996 678.041 27.676C678.041 28.356 677.885 28.956 677.573 29.476C677.269 29.996 676.853 30.4 676.325 30.688C675.805 30.968 675.221 31.108 674.573 31.108ZM674.573 29.644C674.877 29.644 675.161 29.572 675.425 29.428C675.697 29.276 675.913 29.052 676.073 28.756C676.233 28.46 676.313 28.1 676.313 27.676C676.313 27.044 676.145 26.56 675.809 26.224C675.481 25.88 675.077 25.708 674.597 25.708C674.117 25.708 673.713 25.88 673.385 26.224C673.065 26.56 672.905 27.044 672.905 27.676C672.905 28.308 673.061 28.796 673.373 29.14C673.693 29.476 674.093 29.644 674.573 29.644ZM682.957 24.256C683.749 24.256 684.389 24.508 684.877 25.012C685.365 25.508 685.609 26.204 685.609 27.1V31H683.929V27.328C683.929 26.8 683.797 26.396 683.533 26.116C683.269 25.828 682.909 25.684 682.453 25.684C681.989 25.684 681.621 25.828 681.349 26.116C681.085 26.396 680.953 26.8 680.953 27.328V31H679.273V24.352H680.953V25.18C681.177 24.892 681.461 24.668 681.805 24.508C682.157 24.34 682.541 24.256 682.957 24.256ZM693.387 27.532C693.387 27.772 693.371 27.988 693.339 28.18H688.479C688.519 28.66 688.687 29.036 688.983 29.308C689.279 29.58 689.643 29.716 690.075 29.716C690.699 29.716 691.143 29.448 691.407 28.912H693.219C693.027 29.552 692.659 30.08 692.115 30.496C691.571 30.904 690.903 31.108 690.111 31.108C689.471 31.108 688.895 30.968 688.383 30.688C687.879 30.4 687.483 29.996 687.195 29.476C686.915 28.956 686.775 28.356 686.775 27.676C686.775 26.988 686.915 26.384 687.195 25.864C687.475 25.344 687.867 24.944 688.371 24.664C688.875 24.384 689.455 24.244 690.111 24.244C690.743 24.244 691.307 24.38 691.803 24.652C692.307 24.924 692.695 25.312 692.967 25.816C693.247 26.312 693.387 26.884 693.387 27.532ZM691.647 27.052C691.639 26.62 691.483 26.276 691.179 26.02C690.875 25.756 690.503 25.624 690.063 25.624C689.647 25.624 689.295 25.752 689.007 26.008C688.727 26.256 688.555 26.604 688.491 27.052H691.647ZM700.973 24.352L696.857 34.144H695.069L696.509 30.832L693.845 24.352H695.729L697.445 28.996L699.185 24.352H700.973ZM706.991 26.008V27.424H701.903V26.008H706.991ZM713.627 26.704C714.099 26.792 714.487 27.028 714.791 27.412C715.095 27.796 715.247 28.236 715.247 28.732C715.247 29.18 715.135 29.576 714.911 29.92C714.695 30.256 714.379 30.52 713.963 30.712C713.547 30.904 713.055 31 712.487 31H708.875V22.624H712.331C712.899 22.624 713.387 22.716 713.795 22.9C714.211 23.084 714.523 23.34 714.731 23.668C714.947 23.996 715.055 24.368 715.055 24.784C715.055 25.272 714.923 25.68 714.659 26.008C714.403 26.336 714.059 26.568 713.627 26.704ZM710.555 26.08H712.091C712.491 26.08 712.799 25.992 713.015 25.816C713.231 25.632 713.339 25.372 713.339 25.036C713.339 24.7 713.231 24.44 713.015 24.256C712.799 24.072 712.491 23.98 712.091 23.98H710.555V26.08ZM712.247 29.632C712.655 29.632 712.971 29.536 713.195 29.344C713.427 29.152 713.543 28.88 713.543 28.528C713.543 28.168 713.423 27.888 713.183 27.688C712.943 27.48 712.619 27.376 712.211 27.376H710.555V29.632H712.247ZM716.154 27.652C716.154 26.98 716.286 26.384 716.55 25.864C716.822 25.344 717.186 24.944 717.642 24.664C718.106 24.384 718.622 24.244 719.19 24.244C719.686 24.244 720.118 24.344 720.486 24.544C720.862 24.744 721.162 24.996 721.386 25.3V24.352H723.078V31H721.386V30.028C721.17 30.34 720.87 30.6 720.486 30.808C720.11 31.008 719.674 31.108 719.178 31.108C718.618 31.108 718.106 30.964 717.642 30.676C717.186 30.388 716.822 29.984 716.55 29.464C716.286 28.936 716.154 28.332 716.154 27.652ZM721.386 27.676C721.386 27.268 721.306 26.92 721.146 26.632C720.986 26.336 720.77 26.112 720.498 25.96C720.226 25.8 719.934 25.72 719.622 25.72C719.31 25.72 719.022 25.796 718.758 25.948C718.494 26.1 718.278 26.324 718.11 26.62C717.95 26.908 717.87 27.252 717.87 27.652C717.87 28.052 717.95 28.404 718.11 28.708C718.278 29.004 718.494 29.232 718.758 29.392C719.03 29.552 719.318 29.632 719.622 29.632C719.934 29.632 720.226 29.556 720.498 29.404C720.77 29.244 720.986 29.02 721.146 28.732C721.306 28.436 721.386 28.084 721.386 27.676ZM724.287 27.676C724.287 26.988 724.427 26.388 724.707 25.876C724.987 25.356 725.375 24.956 725.871 24.676C726.367 24.388 726.935 24.244 727.575 24.244C728.399 24.244 729.079 24.452 729.615 24.868C730.159 25.276 730.523 25.852 730.707 26.596H728.895C728.799 26.308 728.635 26.084 728.403 25.924C728.179 25.756 727.899 25.672 727.563 25.672C727.083 25.672 726.703 25.848 726.423 26.2C726.143 26.544 726.003 27.036 726.003 27.676C726.003 28.308 726.143 28.8 726.423 29.152C726.703 29.496 727.083 29.668 727.563 29.668C728.243 29.668 728.687 29.364 728.895 28.756H730.707C730.523 29.476 730.159 30.048 729.615 30.472C729.071 30.896 728.391 31.108 727.575 31.108C726.935 31.108 726.367 30.968 725.871 30.688C725.375 30.4 724.987 30 724.707 29.488C724.427 28.968 724.287 28.364 724.287 27.676ZM735.873 31L733.617 28.168V31H731.937V22.12H733.617V27.172L735.849 24.352H738.033L735.105 27.688L738.057 31H735.873ZM747.637 25.144C747.445 24.792 747.181 24.524 746.845 24.34C746.509 24.156 746.117 24.064 745.669 24.064C745.173 24.064 744.733 24.176 744.349 24.4C743.965 24.624 743.665 24.944 743.449 25.36C743.233 25.776 743.125 26.256 743.125 26.8C743.125 27.36 743.233 27.848 743.449 28.264C743.673 28.68 743.981 29 744.373 29.224C744.765 29.448 745.221 29.56 745.741 29.56C746.381 29.56 746.905 29.392 747.313 29.056C747.721 28.712 747.989 28.236 748.117 27.628H745.237V26.344H749.773V27.808C749.661 28.392 749.421 28.932 749.053 29.428C748.685 29.924 748.209 30.324 747.625 30.628C747.049 30.924 746.401 31.072 745.681 31.072C744.873 31.072 744.141 30.892 743.485 30.532C742.837 30.164 742.325 29.656 741.949 29.008C741.581 28.36 741.397 27.624 741.397 26.8C741.397 25.976 741.581 25.24 741.949 24.592C742.325 23.936 742.837 23.428 743.485 23.068C744.141 22.7 744.869 22.516 745.669 22.516C746.613 22.516 747.433 22.748 748.129 23.212C748.825 23.668 749.305 24.312 749.569 25.144H747.637ZM757.292 24.352V31H755.6V30.16C755.384 30.448 755.1 30.676 754.748 30.844C754.404 31.004 754.028 31.084 753.62 31.084C753.1 31.084 752.64 30.976 752.24 30.76C751.84 30.536 751.524 30.212 751.292 29.788C751.068 29.356 750.956 28.844 750.956 28.252V24.352H752.636V28.012C752.636 28.54 752.768 28.948 753.032 29.236C753.296 29.516 753.656 29.656 754.112 29.656C754.576 29.656 754.94 29.516 755.204 29.236C755.468 28.948 755.6 28.54 755.6 28.012V24.352H757.292ZM758.517 27.652C758.517 26.98 758.649 26.384 758.913 25.864C759.185 25.344 759.549 24.944 760.005 24.664C760.469 24.384 760.985 24.244 761.553 24.244C762.049 24.244 762.481 24.344 762.849 24.544C763.225 24.744 763.525 24.996 763.749 25.3V24.352H765.441V31H763.749V30.028C763.533 30.34 763.233 30.6 762.849 30.808C762.473 31.008 762.037 31.108 761.541 31.108C760.981 31.108 760.469 30.964 760.005 30.676C759.549 30.388 759.185 29.984 758.913 29.464C758.649 28.936 758.517 28.332 758.517 27.652ZM763.749 27.676C763.749 27.268 763.669 26.92 763.509 26.632C763.349 26.336 763.133 26.112 762.861 25.96C762.589 25.8 762.297 25.72 761.985 25.72C761.673 25.72 761.385 25.796 761.121 25.948C760.857 26.1 760.641 26.324 760.473 26.62C760.313 26.908 760.233 27.252 760.233 27.652C760.233 28.052 760.313 28.404 760.473 28.708C760.641 29.004 760.857 29.232 761.121 29.392C761.393 29.552 761.681 29.632 761.985 29.632C762.297 29.632 762.589 29.556 762.861 29.404C763.133 29.244 763.349 29.02 763.509 28.732C763.669 28.436 763.749 28.084 763.749 27.676ZM768.762 25.384C768.978 25.032 769.258 24.756 769.602 24.556C769.954 24.356 770.354 24.256 770.802 24.256V26.02H770.358C769.83 26.02 769.43 26.144 769.158 26.392C768.894 26.64 768.762 27.072 768.762 27.688V31H767.082V24.352H768.762V25.384ZM771.501 27.652C771.501 26.98 771.633 26.384 771.897 25.864C772.169 25.344 772.533 24.944 772.989 24.664C773.453 24.384 773.969 24.244 774.537 24.244C775.033 24.244 775.465 24.344 775.833 24.544C776.209 24.744 776.509 24.996 776.733 25.3V24.352H778.425V31H776.733V30.028C776.517 30.34 776.217 30.6 775.833 30.808C775.457 31.008 775.021 31.108 774.525 31.108C773.965 31.108 773.453 30.964 772.989 30.676C772.533 30.388 772.169 29.984 771.897 29.464C771.633 28.936 771.501 28.332 771.501 27.652ZM776.733 27.676C776.733 27.268 776.653 26.92 776.493 26.632C776.333 26.336 776.117 26.112 775.845 25.96C775.573 25.8 775.281 25.72 774.969 25.72C774.657 25.72 774.369 25.796 774.105 25.948C773.841 26.1 773.625 26.324 773.457 26.62C773.297 26.908 773.217 27.252 773.217 27.652C773.217 28.052 773.297 28.404 773.457 28.708C773.625 29.004 773.841 29.232 774.105 29.392C774.377 29.552 774.665 29.632 774.969 29.632C775.281 29.632 775.573 29.556 775.845 29.404C776.117 29.244 776.333 29.02 776.493 28.732C776.653 28.436 776.733 28.084 776.733 27.676ZM783.75 24.256C784.542 24.256 785.182 24.508 785.67 25.012C786.158 25.508 786.402 26.204 786.402 27.1V31H784.722V27.328C784.722 26.8 784.59 26.396 784.326 26.116C784.062 25.828 783.702 25.684 783.246 25.684C782.782 25.684 782.414 25.828 782.142 26.116C781.878 26.396 781.746 26.8 781.746 27.328V31H780.066V24.352H781.746V25.18C781.97 24.892 782.254 24.668 782.598 24.508C782.95 24.34 783.334 24.256 783.75 24.256ZM789.956 25.732V28.948C789.956 29.172 790.008 29.336 790.112 29.44C790.224 29.536 790.408 29.584 790.664 29.584H791.444V31H790.388C788.972 31 788.264 30.312 788.264 28.936V25.732H787.472V24.352H788.264V22.708H789.956V24.352H791.444V25.732H789.956ZM798.832 27.532C798.832 27.772 798.816 27.988 798.784 28.18H793.924C793.964 28.66 794.132 29.036 794.428 29.308C794.724 29.58 795.088 29.716 795.52 29.716C796.144 29.716 796.588 29.448 796.852 28.912H798.664C798.472 29.552 798.104 30.08 797.56 30.496C797.016 30.904 796.348 31.108 795.556 31.108C794.916 31.108 794.34 30.968 793.828 30.688C793.324 30.4 792.928 29.996 792.64 29.476C792.36 28.956 792.22 28.356 792.22 27.676C792.22 26.988 792.36 26.384 792.64 25.864C792.92 25.344 793.312 24.944 793.816 24.664C794.32 24.384 794.9 24.244 795.556 24.244C796.188 24.244 796.752 24.38 797.248 24.652C797.752 24.924 798.14 25.312 798.412 25.816C798.692 26.312 798.832 26.884 798.832 27.532ZM797.092 27.052C797.084 26.62 796.928 26.276 796.624 26.02C796.32 25.756 795.948 25.624 795.508 25.624C795.092 25.624 794.74 25.752 794.452 26.008C794.172 26.256 794 26.604 793.936 27.052H797.092ZM806.238 27.532C806.238 27.772 806.222 27.988 806.19 28.18H801.33C801.37 28.66 801.538 29.036 801.834 29.308C802.13 29.58 802.494 29.716 802.926 29.716C803.55 29.716 803.994 29.448 804.258 28.912H806.07C805.878 29.552 805.51 30.08 804.966 30.496C804.422 30.904 803.754 31.108 802.962 31.108C802.322 31.108 801.746 30.968 801.234 30.688C800.73 30.4 800.334 29.996 800.046 29.476C799.766 28.956 799.626 28.356 799.626 27.676C799.626 26.988 799.766 26.384 800.046 25.864C800.326 25.344 800.718 24.944 801.222 24.664C801.726 24.384 802.306 24.244 802.962 24.244C803.594 24.244 804.158 24.38 804.654 24.652C805.158 24.924 805.546 25.312 805.818 25.816C806.098 26.312 806.238 26.884 806.238 27.532ZM804.498 27.052C804.49 26.62 804.334 26.276 804.03 26.02C803.726 25.756 803.354 25.624 802.914 25.624C802.498 25.624 802.146 25.752 801.858 26.008C801.578 26.256 801.406 26.604 801.342 27.052H804.498Z" fill="#1A1A1A"/>
</g>
<defs>
<filter id="filter0_d_2004_17" x="-40" y="-32" width="1030" height="134" filterUnits="userSpaceOnUse" color-interpolation-filters="sRGB">
<feFlood flood-opacity="0" result="BackgroundImageFix"/>
<feColorMatrix in="SourceAlpha" type="matrix" values="0 0 0 0 0 0 0 0 0 0 0 0 0 0 0 0 0 0 127 0" result="hardAlpha"/>
<feOffset dy="8"/>
<feGaussianBlur stdDeviation="20"/>
<feColorMatrix type="matrix" values="0 0 0 0 0 0 0 0 0 0.15 0 0 0 0 0.00999999 0 0 0 0.08 0"/>
<feBlend mode="normal" in2="BackgroundImageFix" result="effect1_dropShadow_2004_17"/>
<feBlend mode="normal" in="SourceGraphic" in2="effect1_dropShadow_2004_17" result="shape"/>
</filter>
<clipPath id="clip0_2004_17">
<rect width="30" height="30" fill="white" transform="translate(243 12)"/>
</clipPath>
<clipPath id="clip1_2004_17">
<rect width="30" height="30" fill="white" transform="translate(432.5 12)"/>
</clipPath>
<clipPath id="clip2_2004_17">
<rect width="30" height="30" fill="white" transform="translate(622 12)"/>
</clipPath>
</defs>
</svg>
