<svg width="72" height="16" viewBox="0 0 72 16" fill="none" xmlns="http://www.w3.org/2000/svg">
<g clip-path="url(#clip0_3_3019)">
<path fill-rule="evenodd" clip-rule="evenodd" d="M26.1308 5.99891C26.5637 6.52238 26.8465 7.14937 26.9501 7.81534C27.0298 8.31991 27.0041 8.83501 26.8748 9.32959C26.7454 9.82417 26.515 10.2879 26.1975 10.6928C26.0352 10.8957 25.8729 11.0986 25.7176 11.3014C25.4981 11.5771 25.3768 11.9156 25.3724 12.2652C25.3721 13.0262 25.1005 13.7634 24.6044 14.3493C24.1083 14.9352 23.4189 15.3329 22.6552 15.474C22.5347 15.5117 22.4089 15.531 22.2824 15.5315H18.0047C17.8877 15.5295 17.7714 15.5113 17.6595 15.4773C16.8867 15.346 16.186 14.9518 15.6808 14.3643C15.1755 13.7766 14.8982 13.0333 14.8975 12.2652C14.8931 11.9156 14.7718 11.5771 14.5523 11.3014C14.39 11.0952 14.2312 10.8957 14.1034 10.7402C13.5049 10.0043 13.2071 9.07679 13.268 8.1379C13.329 7.19897 13.7443 6.31582 14.4332 5.66012C15.122 5.00442 16.0352 4.62308 16.9952 4.59021C17.9553 4.55733 18.8935 4.8753 19.6274 5.48227C19.7672 5.5985 19.9446 5.66234 20.128 5.66234C20.3114 5.66234 20.4889 5.5985 20.6286 5.48227C21.1553 5.04886 21.7902 4.76063 22.4683 4.64717C23.1463 4.53372 23.843 4.59914 24.4866 4.8367C25.1303 5.07427 25.6978 5.4754 26.1308 5.99891ZM20.2241 12.5153C21.6664 12.5153 22.8355 11.3462 22.8355 9.90392C22.8355 8.46164 21.6664 7.2925 20.2241 7.2925C18.7818 7.2925 17.6127 8.46164 17.6127 9.90392C17.6127 11.3462 18.7818 12.5153 20.2241 12.5153Z" fill="#05A845"/>
<path d="M15.5875 7.23709C15.4909 7.23845 15.3961 7.21141 15.3153 7.15951C15.2346 7.10761 15.1715 7.03315 15.1343 6.94581C15.0972 6.85847 15.0876 6.76222 15.1068 6.66945C15.1261 6.57673 15.1733 6.49178 15.2423 6.42555C15.7427 5.94743 16.4144 5.68038 17.1135 5.6817C17.1802 5.67614 17.2473 5.68423 17.3107 5.70543C17.3739 5.72659 17.4321 5.76045 17.4814 5.8048C17.5306 5.84915 17.57 5.90299 17.5969 5.96303C17.6238 6.02302 17.6377 6.08785 17.6377 6.15335C17.6377 6.21891 17.6238 6.28374 17.5969 6.34373C17.57 6.40372 17.5306 6.45761 17.4814 6.50196C17.4321 6.54626 17.3739 6.58012 17.3107 6.60132C17.2473 6.62248 17.1802 6.63057 17.1135 6.62506C16.6674 6.62682 16.2393 6.79771 15.919 7.10183C15.8307 7.1875 15.7118 7.23605 15.5875 7.23709Z" fill="#015132"/>
<path d="M14.9242 8.77559C14.796 8.77559 14.673 8.72573 14.5824 8.63694C14.4918 8.54819 14.4408 8.42776 14.4408 8.30222C14.4374 8.27866 14.4374 8.25475 14.4408 8.23119C14.4555 8.11162 14.5161 8.00199 14.6104 7.92468C14.7047 7.84733 14.8256 7.80813 14.9484 7.81505C15.0712 7.82192 15.1867 7.87441 15.2713 7.9618C15.356 8.04918 15.4035 8.16487 15.4041 8.28531V8.30561C15.4032 8.42997 15.3523 8.54901 15.2625 8.63698C15.1727 8.72491 15.0512 8.77473 14.9242 8.77559Z" fill="#015132"/>
<path d="M17.751 3.08393C17.598 2.62319 17.5703 2.12747 17.671 1.65143C17.7718 1.17539 17.997 0.737512 18.3219 0.38608C18.3395 0.36632 18.3612 0.35095 18.3853 0.341115C18.4094 0.331281 18.4354 0.327236 18.4612 0.329283C18.8747 0.388742 19.2678 0.553013 19.6059 0.807626C19.944 1.06224 20.2167 1.39939 20.3999 1.78936C20.5831 2.17933 20.6713 2.61016 20.6567 3.04391C20.642 3.47766 20.525 3.90101 20.3159 4.27666C20.186 4.50258 20.0988 4.75223 20.0592 5.01217C20.056 5.03423 20.0471 5.05498 20.0334 5.07216C20.0197 5.08934 20.0017 5.10227 19.9815 5.10959C19.9612 5.11692 19.9394 5.11832 19.9184 5.11366C19.8974 5.109 19.8781 5.09847 19.8625 5.08319C19.6762 4.90457 19.4582 4.76565 19.2206 4.67424C18.88 4.53459 18.5725 4.32023 18.3189 4.04579C18.0652 3.77134 17.8716 3.44327 17.751 3.08393Z" fill="#015132"/>
<path d="M6.53974 11.5484H9.14347C9.05315 11.7815 8.93276 11.9995 8.78226 12.2022C8.6418 12.405 8.47122 12.5824 8.27054 12.7344C8.06986 12.8764 7.8341 12.9879 7.56317 13.069C7.29228 13.14 6.98125 13.1754 6.63007 13.1754C6.0481 13.1754 5.53643 13.0487 5.09494 12.7953C4.65346 12.5419 4.30731 12.1769 4.05647 11.7004C3.80563 11.2139 3.68021 10.6411 3.68021 9.9822C3.68021 9.31312 3.81065 8.7505 4.07152 8.29435C4.34242 7.83815 4.69861 7.49348 5.14009 7.26034C5.59159 7.02716 6.08825 6.91061 6.63007 6.91061C7.19196 6.91061 7.64848 7.04239 7.99966 7.30596C8.35083 7.56952 8.63176 7.89389 8.84247 8.27911L11.5064 6.98661C11.1652 6.4899 10.7639 6.04894 10.3023 5.66372C9.84081 5.26837 9.30401 4.95915 8.69198 4.73615C8.08994 4.50299 7.40263 4.38641 6.63007 4.38641C5.77721 4.38641 4.98457 4.5182 4.25212 4.78177C3.51967 5.03519 2.88255 5.41028 2.34073 5.90699C1.79893 6.39361 1.37752 6.98154 1.07651 7.67088C0.775503 8.36022 0.625 9.13066 0.625 9.9822C0.625 10.8337 0.770486 11.6143 1.06146 12.3239C1.35243 13.0234 1.75879 13.6265 2.28053 14.1334C2.81231 14.6301 3.43439 15.0153 4.14677 15.2891C4.86918 15.5628 5.65682 15.6996 6.50968 15.6996C7.43274 15.6996 8.25047 15.5374 8.96286 15.213C9.67526 14.8785 10.2672 14.4223 10.7388 13.8445C11.2104 13.2667 11.5565 12.5925 11.7773 11.8221C11.998 11.0517 12.0732 10.2305 12.003 9.35873H6.53974V11.5484Z" fill="#05A845"/>
<path d="M61.3591 2.90564H64.2864V15.2475H61.3591V2.90564ZM66.913 7.96897H70.5364L67.451 10.9753L70.8529 15.2475H67.2927L63.8275 10.9753L66.913 7.96897Z" fill="#05A845"/>
<path d="M57.0564 11.6082C57.0564 11.9246 57.1302 12.1936 57.2779 12.4151C57.4256 12.6261 57.6207 12.7896 57.8634 12.9056C58.1165 13.0111 58.3855 13.0639 58.6703 13.0639C58.9024 13.0639 59.1292 13.0322 59.3507 12.9689C59.5828 12.9056 59.8043 12.8054 60.0153 12.6683C60.2262 12.5312 60.4108 12.3518 60.5691 12.1303V14.9152C60.3159 15.0523 60.0258 15.1683 59.6988 15.2633C59.3824 15.3582 58.934 15.4057 58.3539 15.4057C57.4889 15.4057 56.7188 15.2527 56.0437 14.9468C55.3686 14.6409 54.8359 14.2031 54.4456 13.6335C54.0659 13.0639 53.876 12.3888 53.876 11.6082C53.876 10.817 54.0659 10.1419 54.4456 9.58284C54.8359 9.01321 55.3686 8.57544 56.0437 8.26953C56.7188 7.96362 57.4889 7.81067 58.3539 7.81067C58.934 7.81067 59.3824 7.85814 59.6988 7.95308C60.0258 8.04801 60.3159 8.1535 60.5691 8.26953V11.0702C60.4108 10.8381 60.2157 10.6588 59.9836 10.5322C59.7516 10.3951 59.5195 10.3001 59.2874 10.2474C59.0553 10.1841 58.8496 10.1525 58.6703 10.1525C58.3855 10.1525 58.1165 10.221 57.8634 10.3582C57.6207 10.4847 57.4256 10.6588 57.2779 10.8803C57.1302 11.0913 57.0564 11.3339 57.0564 11.6082Z" fill="#05A845"/>
<path d="M50.218 5.40563C50.218 4.94149 50.3815 4.56701 50.7085 4.2822C51.0461 3.99739 51.4522 3.85498 51.9269 3.85498C52.4016 3.85498 52.8024 3.99739 53.1294 4.2822C53.467 4.56701 53.6358 4.94149 53.6358 5.40563C53.6358 5.86977 53.467 6.24424 53.1294 6.52905C52.8024 6.81387 52.4016 6.95627 51.9269 6.95627C51.4522 6.95627 51.0461 6.81387 50.7085 6.52905C50.3815 6.24424 50.218 5.86977 50.218 5.40563ZM50.4395 7.96894H53.3984V15.2475H50.4395V7.96894Z" fill="#05A845"/>
<path d="M44.9107 12.3994C44.9107 12.7264 44.9582 12.9848 45.0531 13.1747C45.148 13.354 45.3537 13.4437 45.6702 13.4437C45.8601 13.4437 46.0183 13.4068 46.1449 13.3329C46.282 13.2591 46.3875 13.1483 46.4613 13.0007C46.5352 12.8424 46.5721 12.642 46.5721 12.3994V7.96896H49.6576V15.2475H46.5721V14.1874C46.3717 14.5566 46.0869 14.8572 45.7177 15.0893C45.359 15.3108 44.8949 15.4216 44.3252 15.4216C43.3337 15.4216 42.6427 15.1895 42.2524 14.7253C41.8621 14.2507 41.667 13.5808 41.667 12.7158V7.96896H44.9107V12.3994Z" fill="#05A845"/>
<path d="M31.4587 9.70946C31.4587 10.3529 31.5906 10.9015 31.8543 11.355C32.118 11.8086 32.4661 12.1567 32.8986 12.3994C33.3416 12.6314 33.8216 12.7475 34.3385 12.7475C34.8554 12.7475 35.3037 12.6472 35.6834 12.4468C36.0737 12.2464 36.3744 11.9563 36.5853 11.5766C36.7963 11.1863 36.9018 10.7221 36.9018 10.1841C36.9018 9.63562 36.7963 9.11874 36.5853 8.6335C36.3744 8.14827 36.0579 7.75269 35.636 7.44678C35.214 7.14087 34.676 6.98792 34.022 6.98792C33.5051 6.98792 33.0516 7.10395 32.6613 7.33602C32.2815 7.55754 31.9861 7.874 31.7752 8.2854C31.5642 8.68624 31.4587 9.16093 31.4587 9.70946ZM27.772 9.70946C27.772 8.82338 27.9302 8.02168 28.2467 7.30438C28.5737 6.58707 29.022 5.96998 29.5916 5.4531C30.1718 4.93621 30.8363 4.54064 31.5853 4.26638C32.3448 3.99211 33.157 3.85498 34.022 3.85498C34.9081 3.85498 35.7204 3.99211 36.4588 4.26638C37.2077 4.54064 37.8512 4.93621 38.3892 5.4531C38.9377 5.96998 39.3596 6.58707 39.655 7.30438C39.9609 8.02168 40.1138 8.82338 40.1138 9.70946C40.1138 10.5955 39.9662 11.4078 39.6708 12.1462C39.386 12.874 38.9693 13.507 38.4208 14.0449C37.8828 14.5829 37.2394 14.9943 36.4904 15.2791C35.752 15.5745 34.9292 15.7222 34.022 15.7222C33.1148 15.7222 32.2815 15.5745 31.522 15.2791C30.7625 14.9943 30.0979 14.5829 29.5283 14.0449C28.9692 13.507 28.5367 12.874 28.2308 12.1462C27.9249 11.4078 27.772 10.5955 27.772 9.70946ZM32.7245 10.5006H36.1265L41.8227 15.5639H38.2626L32.7245 10.5006Z" fill="#05A845"/>
</g>
<defs>
<clipPath id="clip0_3_3019">
<rect width="70.525" height="15.3708" fill="white" transform="translate(0.625244 0.328766)"/>
</clipPath>
</defs>
</svg>
